<?xml version="1.0" standalone="no"?>
<!DOCTYPE svg PUBLIC "-//W3C//DTD SVG 1.1//EN" "http://www.w3.org/Graphics/SVG/1.1/DTD/svg11.dtd" >
<svg xmlns="http://www.w3.org/2000/svg" xmlns:xlink="http://www.w3.org/1999/xlink" version="1.1">
<metadata>
Created by FontForge 20170731 at Tue Nov 15 14:47:28 2016
 By Aleksey,,,
Copyright (c) 2009 by abstrkt. All rights reserved.
</metadata>
<defs>
<font id="EditorialGrotesk" horiz-adv-x="556" >
  <font-face 
    font-family="Editorial Grotesk "
    font-weight="400"
    font-stretch="normal"
    units-per-em="1000"
    panose-1="0 0 0 0 0 0 0 0 0 0"
    ascent="750"
    descent="-250"
    x-height="520"
    cap-height="720"
    bbox="-52 -342 4625 1035"
    underline-thickness="50"
    underline-position="-200"
    unicode-range="U+0020-2122"
  />
<missing-glyph horiz-adv-x="278" 
 />
    <glyph glyph-name=".notdef" horiz-adv-x="278" 
 />
    <glyph glyph-name=".null" horiz-adv-x="0" 
 />
    <glyph glyph-name="nonmarkingreturn" horiz-adv-x="333" 
 />
    <glyph glyph-name="space" unicode=" " horiz-adv-x="278" 
 />
    <glyph glyph-name="exclam" unicode="!" horiz-adv-x="239" 
d="M148 178h-56l-22 542h99zM165 0h-91v100h91v-100z" />
    <glyph glyph-name="quotedbl" unicode="&#x22;" horiz-adv-x="399" 
d="M148 482h-56l-22 238h99zM308 482h-56l-22 238h99z" />
    <glyph glyph-name="numbersign" unicode="#" 
d="M309 0h-89l58 205h-90l-59 -205h-89l58 205h-98l20 75h100l47 165h-103l20 75h105l57 200h90l-58 -200h90l58 200h90l-58 -200h98l-20 -75h-99l-48 -165h103l-20 -75h-104zM257 445l-48 -165h91l47 165h-90z" />
    <glyph glyph-name="dollar" unicode="$" 
d="M531 184q0 -120 -87 -184h-325q-88 61 -100 204q5 0 15 0.5t15 1.5q7 1 20 2t23.5 2t19.5 2q6 -70 35 -114q28 -42 82 -57l6 -2v304l-4 1q-110 31 -151 91q-31 42 -31 114q0 109 75 171h297q76 -58 85 -185l-48 -3q-7 0 -23 -1.5t-25 -2.5q-7 67 -27 102q-23 44 -70 57
l-7 1v-273l4 -1q221 -55 221 -230zM234 435v250l-6 -2q-41 -10 -64 -42q-24 -31 -24 -88q0 -42 22 -70q23 -30 65 -46zM398 76q34 39 34 103q0 97 -94 135l-33 11v-292h6q58 8 87 43z" />
    <glyph glyph-name="ampersand" unicode="&#x26;" horiz-adv-x="633" 
d="M613 0h-118q-9 10 -27 29.5t-27 29.5q-76 -74 -183 -74t-162.5 53.5t-55.5 135.5q0 62 33 105.5t91 79.5q-83 83 -83 191q0 89 55.5 137t139.5 48q52 0 90 -16t58.5 -43t30 -56t9.5 -60q0 -116 -155 -208q-1 -1 -4.5 -3t-5.5 -3q22 -25 66 -73t66 -73q24 64 24 147h89
q6 -118 -49 -217q17 -20 36.5 -41.5t44 -47.5t37.5 -41zM239 414l7 -8q70 42 98.5 75t28.5 79q0 38 -24.5 66.5t-72.5 28.5q-50 0 -77 -31.5t-27 -73.5q0 -41 15 -68.5t52 -67.5zM135 174q0 -50 33.5 -79.5t82.5 -29.5q83 0 133 55q-27 29 -81.5 88.5t-81.5 89.5
q-86 -58 -86 -124z" />
    <glyph glyph-name="quotesingle" unicode="'" horiz-adv-x="239" 
d="M148 482h-56l-22 238h99z" />
    <glyph glyph-name="parenleft" unicode="(" horiz-adv-x="311" 
d="M50 360q0 123 48 243.5t130 216.5h63q-76 -118 -111 -224t-35 -236t35 -236t111 -224h-63q-82 96 -130 216.5t-48 243.5z" />
    <glyph glyph-name="parenright" unicode=")" horiz-adv-x="311" 
d="M261 360q0 -123 -48 -243.5t-130 -216.5h-63q76 118 111 224t35 236t-35 236t-111 224h63q82 -96 130 -216.5t48 -243.5z" />
    <glyph glyph-name="asterisk" unicode="*" horiz-adv-x="417" 
d="M250 735l-12 -118q18 7 54.5 23t54.5 23q4 -13 12.5 -39t12.5 -39q-20 -4 -58 -12.5t-58 -12.5q13 -15 39 -44.5t39 -44.5l-66 -48l-60 102l-62 -101l-66 48q13 14 39 44t39 44q-19 4 -56.5 13t-56.5 14q4 13 12.5 39t12.5 39l108 -48q-2 20 -5 59t-5 59h82z" />
    <glyph glyph-name="plus" unicode="+" 
d="M315 325v-211h-75v211h-190v75h190v210h75v-210h191v-75h-191z" />
    <glyph glyph-name="comma" unicode="," horiz-adv-x="246" 
d="M127 0h-51v100h100v-100q0 -106 -82 -142l-24 38q57 24 57 104z" />
    <glyph glyph-name="hyphen" unicode="-" horiz-adv-x="370" 
d="M320 217h-270v86h270v-86z" />
    <glyph glyph-name="period" unicode="." horiz-adv-x="231" 
d="M161 0h-91v100h91v-100z" />
    <glyph glyph-name="slash" unicode="/" horiz-adv-x="336" 
d="M89 -100h-89l246 920h90z" />
    <glyph glyph-name="zero" unicode="0" 
d="M45 360q0 113 22.5 194.5t75.5 131t135 49.5t135 -49.5t75.5 -131t22.5 -194.5t-22.5 -194.5t-75.5 -131t-135 -49.5t-135 49.5t-75.5 131t-22.5 194.5zM421 360q0 116 -23 189l-195 -460q29 -29 75 -29q143 0 143 300zM135 360q0 -117 21 -188l196 459q-29 29 -74 29
q-143 0 -143 -300z" />
    <glyph glyph-name="one" unicode="1" horiz-adv-x="414" 
d="M326 720v-720h-95v720h95zM231 720l-91 -269h-95l91 269h95z" />
    <glyph glyph-name="two" unicode="2" 
d="M98 94h399v-93h-426v190l1 1q27 22 33 28q4 4 74 64q57 50 150 130q50 44 64 87q17 58 -13 101q-31 45 -87 50h-11q-89 0 -115 -88q-2 -7 -4 -21v-1q-1 -1 -1 -3l-1 -17h-93q0 18 1 22q0 5 1 6q2 20 6 39q32 112 139 145q31 10 68 10q69 0 122 -36q57 -38 79 -106
q38 -120 -50 -213q-40 -43 -88 -81q-78 -60 -248 -214z" />
    <glyph glyph-name="three" unicode="3" 
d="M230 431h42q52 0 82 33t30 84q0 49 -30.5 79.5t-81.5 30.5q-59 0 -91 -38.5t-32 -96.5l-91 12q7 93 64.5 146.5t147.5 53.5q93 0 151 -47.5t58 -137.5q0 -108 -108 -151q63 -18 99 -69t36 -123q0 -98 -65 -160t-169 -62q-102 0 -165 55.5t-67 148.5l94 13q2 -60 38 -98.5
t100 -38.5q66 0 104 41t38 104t-38 104.5t-104 41.5h-42v75z" />
    <glyph glyph-name="four" unicode="4" 
d="M329 720h95v-464h97v-85h-97v-171h-95v171h-299v85l208 464h91l-208 -464h208v464z" />
    <glyph glyph-name="five" unicode="5" 
d="M35 187l92 8q8 -59 43.5 -94.5t93.5 -35.5q69 0 108.5 49t39.5 121q0 73 -39 116.5t-110 43.5q-81 0 -130 -67l-83 10l69 382h356v-85h-285l-39 -205q51 45 135 45q101 0 162 -69t61 -171q0 -108 -66 -179t-179 -71q-94 0 -158 54.5t-71 147.5z" />
    <glyph glyph-name="six" unicode="6" 
d="M487 557l-88 -10q-23 108 -111 108q-48 0 -82.5 -26.5t-51.5 -71.5t-24.5 -90.5t-8.5 -97.5q50 98 166 98q100 0 159.5 -68.5t59.5 -166.5q0 -103 -61 -175t-165 -72q-245 0 -245 350q0 193 64 296.5t184 103.5q172 0 204 -178zM135 226q0 -68 38.5 -114.5t98.5 -46.5
q68 0 102.5 45t34.5 116t-34.5 116t-102.5 45q-57 0 -97 -47t-40 -114z" />
    <glyph glyph-name="seven" unicode="7" 
d="M491 721v-85h-441v85h441zM491 635v-127q-86 -89 -167.5 -237.5t-88.5 -269.5h-85q3 149 107.5 326t233.5 308z" />
    <glyph glyph-name="eight" unicode="8" 
d="M45 200q0 71 35.5 123t98.5 76q-106 42 -106 151q0 84 57 134.5t147 50.5q91 0 148 -50.5t57 -134.5q0 -109 -106 -151q63 -24 99 -76.5t36 -122.5q0 -97 -64.5 -156t-169.5 -59t-168.5 59t-63.5 156zM137 210q0 -63 37 -104t103 -41t104 41t38 104t-38 104.5t-104 41.5
t-103 -41.5t-37 -104.5zM161 548q0 -50 31.5 -83.5t84.5 -33.5t85 33.5t32 83.5t-32 83.5t-85 33.5t-84.5 -33.5t-31.5 -83.5z" />
    <glyph glyph-name="nine" unicode="9" 
d="M54 163l88 10q11 -51 43.5 -79.5t77.5 -28.5q152 0 157 290q-57 -92 -174 -92q-94 0 -152.5 68.5t-58.5 165.5q0 101 62 169.5t162 68.5q247 0 247 -350q0 -194 -60.5 -297t-180.5 -103q-90 0 -143 46.5t-68 131.5zM406 499q0 67 -38.5 111.5t-98.5 44.5
q-69 0 -105.5 -43t-36.5 -113t36.5 -113t105.5 -43q57 0 97 45t40 111z" />
    <glyph glyph-name="colon" unicode=":" horiz-adv-x="231" 
d="M161 342h-91v100h91v-100zM161 82h-91v100h91v-100z" />
    <glyph glyph-name="semicolon" unicode=";" horiz-adv-x="231" 
d="M161 342h-91v100h91v-100zM121 0h-51v100h100v-100q0 -106 -82 -142l-24 38q57 24 57 104z" />
    <glyph glyph-name="less" unicode="&#x3c;" 
d="M93 301v97l380 229v-98l-301 -177l301 -179v-101z" />
    <glyph glyph-name="equal" unicode="=" 
d="M506 245h-456v75h456v-75zM506 405h-456v75h456v-75z" />
    <glyph glyph-name="greater" unicode="&#x3e;" 
d="M473 398v-97l-380 -229v101l301 179l-301 177v98z" />
    <glyph glyph-name="question" unicode="?" 
d="M312 176h-85v27q0 123 91 185q85 58 85 139q0 66 -37.5 97t-96.5 31q-55 0 -91 -35.5t-43 -105.5l-86 10q9 98 68.5 154.5t150.5 56.5q104 0 167 -55t63 -147q0 -35 -9.5 -64t-32 -55.5t-37 -40t-46.5 -40.5q-35 -29 -47 -57t-14 -73v-27zM322 0h-100v100h100v-100z" />
    <glyph glyph-name="at" unicode="@" horiz-adv-x="745" 
d="M534 455v-256q0 -74 37 -74q54 0 54 155q0 126 -67 200.5t-185 74.5q-111 0 -182 -84t-71 -211q0 -130 69.5 -212.5t193.5 -82.5q91 0 145 51l65 -52q-36 -37 -94.5 -55.5t-115.5 -18.5q-161 0 -254.5 105t-93.5 265q0 159 92 264.5t246 105.5q155 0 246 -96.5t91 -253.5
q0 -40 -7.5 -78t-22.5 -72.5t-43 -55t-65 -20.5q-33 0 -61 22t-33 52l-12 -22q-37 -52 -103 -52q-79 0 -123 56t-44 150q0 93 44 149.5t123 56.5q71 0 111 -64v53h60zM463 260q0 63 -29 99t-67 36q-41 0 -67 -35t-26 -100t26 -100t67 -35q42 0 69 35.5t27 99.5z" />
    <glyph glyph-name="A" unicode="A" horiz-adv-x="675" 
d="M248 720h180l237 -720h-105l-60 175h-330l-61 -175h-99zM338 720l-143 -460h286z" />
    <glyph glyph-name="B" unicode="B" horiz-adv-x="674" 
d="M353 0h-273v720h259q115 0 183.5 -47t68.5 -140q0 -55 -27 -96.5t-83 -60.5q65 -16 104 -60.5t39 -107.5q0 -208 -271 -208zM175 635v-225h155q163 0 163 111q0 67 -46 90.5t-129 23.5h-143zM175 325v-240h178q81 0 125.5 27t44.5 96q0 117 -183 117h-165z" />
    <glyph glyph-name="C" unicode="C" horiz-adv-x="734" 
d="M150 360q0 -132 59 -213.5t174 -81.5q78 0 129.5 44.5t74.5 123.5l97 -19q-25 -104 -103 -166.5t-198 -62.5q-159 0 -246 106t-87 269t87 269t246 106q121 0 199 -62t102 -168l-97 -19q-16 79 -67.5 124t-136.5 45q-109 0 -171 -83t-62 -212z" />
    <glyph glyph-name="D" unicode="D" horiz-adv-x="709" 
d="M315 0h-235v720h224q174 0 264.5 -92t90.5 -266q0 -172 -86.5 -267t-257.5 -95zM175 635v-551h130q131 0 193.5 69t62.5 210q0 146 -66.5 209t-192.5 63h-127z" />
    <glyph glyph-name="E" unicode="E" horiz-adv-x="657" 
d="M587 0h-507v720h497v-85h-402v-225h352v-85h-352v-240h412v-85z" />
    <glyph glyph-name="F" unicode="F" horiz-adv-x="611" 
d="M175 0h-95v720h481v-85h-386v-225h336v-85h-336v-325z" />
    <glyph glyph-name="G" unicode="G" horiz-adv-x="760" 
d="M150 360q0 -128 69.5 -211.5t186.5 -83.5q57 0 116.5 21.5t85.5 59.5v135h-213v84h305v-253q-39 -55 -122 -91t-175 -36q-161 0 -257 107.5t-96 267.5q0 161 91.5 268t251.5 107q122 0 198 -55t99 -160l-95 -23q-24 85 -74.5 121.5t-129.5 36.5q-110 0 -175.5 -83.5
t-65.5 -211.5z" />
    <glyph glyph-name="H" unicode="H" horiz-adv-x="722" 
d="M175 0h-95v720h95v-310h372v310h95v-720h-95v325h-372v-325z" />
    <glyph glyph-name="I" unicode="I" horiz-adv-x="255" 
d="M175 0h-95v720h95v-720z" />
    <glyph glyph-name="J" unicode="J" horiz-adv-x="516" 
d="M21 193l86 12q2 -61 30 -100.5t87 -39.5q117 0 117 158v497h95v-492q0 -118 -54.5 -180.5t-157.5 -62.5q-98 0 -151.5 55.5t-51.5 152.5z" />
    <glyph glyph-name="K" unicode="K" horiz-adv-x="698" 
d="M80 720h95v-360v-360h-95v720zM650 720l-348 -367l348 -353h-120l-355 353l355 367h120z" />
    <glyph glyph-name="L" unicode="L" horiz-adv-x="608" 
d="M578 0h-498v720h95v-635h403v-85z" />
    <glyph glyph-name="M" unicode="M" horiz-adv-x="863" 
d="M175 720h105l153 -720l150 720h105l-163 -720h-186zM175 720v-720h-95l-1 720h96zM688 720h95v-720h-95v720z" />
    <glyph glyph-name="N" unicode="N" horiz-adv-x="724" 
d="M171 0h-91v720h182l291 -720v716v4h91v-4v-716h-189l-284 720v-720z" />
    <glyph glyph-name="O" unicode="O" horiz-adv-x="785" 
d="M50 360q0 161 91.5 268t251.5 107q159 0 250.5 -107t91.5 -268t-91.5 -268t-250.5 -107q-160 0 -251.5 107t-91.5 268zM150 360q0 -130 63.5 -212.5t179.5 -82.5q110 0 176 83.5t66 211.5t-66 211.5t-176 83.5t-176.5 -83.5t-66.5 -211.5z" />
    <glyph glyph-name="P" unicode="P" horiz-adv-x="657" 
d="M175 0h-95v720h250q277 0 277 -211q0 -219 -269 -219h-163v-290zM175 635v-260h165q169 0 169 131q0 39 -13 65.5t-37.5 40t-53 18.5t-67.5 5h-163z" />
    <glyph glyph-name="Q" unicode="Q" horiz-adv-x="785" 
d="M50 360q0 161 91.5 268t251.5 107q159 0 250.5 -107t91.5 -268q0 -169 -97 -274l75 -86l-68 -59l-78 88q-75 -44 -174 -44q-160 0 -251.5 107t-91.5 268zM434 182l68 59l73 -84q60 80 60 203q0 128 -66 211.5t-176 83.5t-176.5 -83.5t-66.5 -211.5q0 -130 63.5 -212.5
t179.5 -82.5q65 0 116 31z" />
    <glyph glyph-name="R" unicode="R" horiz-adv-x="677" 
d="M554 0l-243 300h-43h-93v-300h-95v720h240q57 0 105 -11t87.5 -34.5t62 -65.5t22.5 -100q0 -162 -182 -194q-1 0 -3 -1l255 -314h-113zM175 635v-260h155q169 0 169 131q0 129 -171 129h-153z" />
    <glyph glyph-name="S" unicode="S" horiz-adv-x="665" 
d="M50 230l94 8q6 -84 60.5 -128.5t141.5 -44.5q77 0 122 35.5t45 93.5q0 75 -79 106q-21 8 -106.5 31t-102.5 28q-89 29 -118.5 70.5t-29.5 101.5q0 97 74 150.5t173 53.5q122 0 192 -55t77 -166l-96 -7q-14 148 -169 148q-64 0 -111.5 -30t-47.5 -88q0 -61 61 -83
q40 -16 208 -62q85 -24 131 -69.5t46 -123.5q0 -70 -40.5 -120t-99 -72t-125.5 -22q-137 0 -214.5 62t-85.5 183z" />
    <glyph glyph-name="T" unicode="T" horiz-adv-x="619" 
d="M357 0h-95v635h-242v85h579v-85h-242v-635z" />
    <glyph glyph-name="U" unicode="U" horiz-adv-x="723" 
d="M548 297v423h95v-418q0 -146 -69.5 -231.5t-211.5 -85.5q-141 0 -211.5 86t-70.5 231v418h95v-423q0 -227 188 -227q185 0 185 227z" />
    <glyph glyph-name="V" unicode="V" horiz-adv-x="675" 
d="M434 0h-194l-230 720h103l224 -720l231 720h97z" />
    <glyph glyph-name="W" unicode="W" horiz-adv-x="940" 
d="M330 0h-170l-150 720h97l143 -720l163 720h114l168 -720l139 720h96l-145 -720h-175l-140 628z" />
    <glyph glyph-name="X" unicode="X" horiz-adv-x="697" 
d="M134 0h-114l277 373l-244 347h113l187 -276l201 276h103l-251 -342l271 -378h-118l-211 303z" />
    <glyph glyph-name="Y" unicode="Y" horiz-adv-x="675" 
d="M385 0h-95v303l-280 417h115l217 -337l213 337h110l-280 -417v-303z" />
    <glyph glyph-name="Z" unicode="Z" horiz-adv-x="695" 
d="M641 720v-85h-612v85h612zM641 85v-85h-612v85h612zM641 635v-110l-612 -440v110z" />
    <glyph glyph-name="bracketleft" unicode="[" horiz-adv-x="337" 
d="M297 -100h-217v920h217v-85h-122v-750h122v-85z" />
    <glyph glyph-name="backslash" unicode="\" horiz-adv-x="336" 
d="M336 -100h-89l-247 920h90z" />
    <glyph glyph-name="bracketright" unicode="]" horiz-adv-x="337" 
d="M257 -100h-217v85h122v750h-122v85h217v-920z" />
    <glyph glyph-name="asciicircum" unicode="^" 
d="M229 720h97l139 -249l-101 -1l-87 171l-89 -171h-98z" />
    <glyph glyph-name="underscore" unicode="_" horiz-adv-x="696" 
d="M626 0h-556v75h556v-75z" />
    <glyph glyph-name="grave" unicode="`" horiz-adv-x="284" 
d="M158 720l76 -187h-71l-123 187h118z" />
    <glyph glyph-name="a" unicode="a" horiz-adv-x="544" 
d="M387 64q-71 -79 -175 -79q-77 0 -127 38.5t-50 113.5q0 149 204 168q104 9 142 27v20q0 111 -120 111q-97 0 -125 -104l-85 19q34 157 219 157q201 0 201 -201v-228q0 -76 28 -106h-91q-15 14 -21 64zM381 140v123q-29 -14 -132 -30q-27 -4 -43 -8.5t-36.5 -14t-30.5 -27
t-10 -42.5q0 -84 97 -84q46 0 88.5 26t66.5 57z" />
    <glyph glyph-name="b" unicode="b" horiz-adv-x="550" 
d="M65 720h90v-255q50 70 137 70q106 0 164.5 -75.5t58.5 -199.5t-58.5 -199.5t-164.5 -75.5q-95 0 -147 86v-71h-80v720zM144 260q0 -93 43.5 -146.5t99.5 -53.5q62 0 100 52t38 148t-38 148t-100 52t-102.5 -52.5t-40.5 -147.5z" />
    <glyph glyph-name="c" unicode="c" horiz-adv-x="524" 
d="M125 260q0 -100 42 -150t106 -50q102 0 129 117l87 -20q-21 -82 -77 -127t-139 -45q-109 0 -173.5 73.5t-64.5 201.5t64.5 201.5t173.5 73.5q83 0 139 -45.5t77 -127.5l-87 -20q-27 118 -129 118q-64 0 -106 -50t-42 -150z" />
    <glyph glyph-name="d" unicode="d" horiz-adv-x="550" 
d="M395 720h90v-720h-80v71q-52 -86 -147 -86q-106 0 -164.5 75.5t-58.5 199.5t58.5 199.5t164.5 75.5q87 0 137 -70v255zM406 260q0 95 -40.5 147.5t-102.5 52.5t-100 -52t-38 -148t38 -148t100 -52q56 0 99.5 53.5t43.5 146.5z" />
    <glyph glyph-name="e" unicode="e" horiz-adv-x="544" 
d="M508 237h-383q6 -88 49 -132.5t104 -44.5q48 0 87 30t52 86l85 -18q-22 -85 -82 -129t-147 -44q-109 0 -173.5 73.5t-64.5 201.5t64.5 201.5t173.5 73.5q114 0 175 -73.5t61 -191.5q0 -26 -1 -33zM273 460q-51 0 -92.5 -38t-52.5 -113h285q-3 67 -40.5 109t-99.5 42z" />
    <glyph glyph-name="f" unicode="f" horiz-adv-x="303" 
d="M175 0h-87v451h-78v69h78v21q0 170 150 170q51 0 85 -16l-17 -72q-23 10 -57 10q-74 0 -74 -90v-23h101v-69h-101v-451z" />
    <glyph glyph-name="g" unicode="g" horiz-adv-x="550" 
d="M485 40q0 -250 -228 -250q-82 0 -142 45t-60 132l85 -13q2 -41 36.5 -64.5t82.5 -23.5q141 0 136 152v37q-50 -70 -137 -70q-106 0 -164.5 75.5t-58.5 199.5t58.5 199.5t164.5 75.5q95 0 147 -86v71h80v-480zM406 260q0 93 -43.5 146.5t-99.5 53.5q-62 0 -100 -52
t-38 -148t38 -148t100 -52t102.5 52.5t40.5 147.5z" />
    <glyph glyph-name="h" unicode="h" horiz-adv-x="555" 
d="M155 0h-90v720h90v-271q44 86 156 86q101 0 140 -56.5t39 -159.5v-319h-90v315q0 144 -107 144q-63 0 -100.5 -46t-37.5 -130v-283z" />
    <glyph glyph-name="i" unicode="i" horiz-adv-x="220" 
d="M155 619h-90v101h90v-101zM155 0h-90v520h90v-520z" />
    <glyph glyph-name="j" unicode="j" horiz-adv-x="220" 
d="M-52 -200l18 75q20 -6 36 -6q39 0 51 27.5t12 77.5v546h90v-548q0 -87 -31.5 -134.5t-110.5 -47.5q-28 0 -65 10zM155 619h-90v101h90v-101z" />
    <glyph glyph-name="k" unicode="k" horiz-adv-x="506" 
d="M65 720h90v-720h-90v720zM462 520l-201 -261l201 -259h-100l-206 259l206 261h100z" />
    <glyph glyph-name="l" unicode="l" horiz-adv-x="220" 
d="M155 0h-90v695l90 40v-735z" />
    <glyph glyph-name="m" unicode="m" horiz-adv-x="839" 
d="M155 0h-90v520h81v-74q50 89 157 89q115 0 148 -96q46 96 160 96q80 0 121.5 -46t41.5 -133v-356h-90v327q0 61 -19.5 96.5t-72.5 35.5q-64 0 -95.5 -44.5t-31.5 -113.5v-301h-90v337q0 122 -92 122q-128 0 -128 -190v-269z" />
    <glyph glyph-name="n" unicode="n" horiz-adv-x="555" 
d="M155 0h-90v520h81v-75q53 90 165 90q101 0 140 -56.5t39 -159.5v-319h-90v315q0 144 -107 144q-63 0 -100.5 -46t-37.5 -130v-283z" />
    <glyph glyph-name="o" unicode="o" 
d="M35 260q0 127 67 201t176 74t176 -74t67 -201t-67 -201t-176 -74t-176 74t-67 201zM125 260q0 -100 44 -150t109 -50t109 50t44 150t-44 150t-109 50t-109 -50t-44 -150z" />
    <glyph glyph-name="p" unicode="p" horiz-adv-x="550" 
d="M155 -200h-90v720h80v-71q52 86 147 86q106 0 164.5 -75.5t58.5 -199.5t-58.5 -199.5t-164.5 -75.5q-87 0 -137 70v-255zM144 260q0 -95 40.5 -147.5t102.5 -52.5t100 52t38 148t-38 148t-100 52q-56 0 -99.5 -53.5t-43.5 -146.5z" />
    <glyph glyph-name="q" unicode="q" horiz-adv-x="550" 
d="M485 -200h-90v255q-50 -70 -137 -70q-106 0 -164.5 75.5t-58.5 199.5t58.5 199.5t164.5 75.5q95 0 147 -86v71h80v-720zM406 260q0 93 -43.5 146.5t-99.5 53.5q-62 0 -100 -52t-38 -148t38 -148t100 -52t102.5 52.5t40.5 147.5z" />
    <glyph glyph-name="r" unicode="r" horiz-adv-x="385" 
d="M155 0h-90v520h81v-90q50 105 142 105q57 0 92 -28l-27 -79q-31 22 -69 22q-63 0 -96 -45.5t-33 -123.5v-281z" />
    <glyph glyph-name="s" unicode="s" horiz-adv-x="493" 
d="M35 150l87 13q15 -103 129 -103q46 0 81.5 18t35.5 57q0 30 -16 47.5t-55 27.5l-127 34q-61 17 -95.5 47.5t-34.5 89.5q0 77 57 115.5t144 38.5q90 0 140.5 -40.5t56.5 -109.5l-86 -12q-12 87 -113 87q-55 0 -84 -18.5t-29 -50.5q0 -43 64 -60l140 -38q128 -35 128 -150
q0 -80 -61 -119t-149 -39q-95 0 -151 43t-62 122z" />
    <glyph glyph-name="t" unicode="t" horiz-adv-x="322" 
d="M272 76l10 -76q-33 -10 -66 -10q-76 0 -99 38t-23 124v299h-74v69h74v137l90 43v-180h89v-69h-89v-304q0 -22 1 -32t5 -22.5t14 -17.5t27 -5q22 0 41 6z" />
    <glyph glyph-name="u" unicode="u" horiz-adv-x="555" 
d="M400 520h90v-520h-81v75q-60 -90 -165 -90q-101 0 -140 56.5t-39 159.5v319h90v-315q0 -144 107 -144q63 0 100.5 46t37.5 130v283z" />
    <glyph glyph-name="v" unicode="v" horiz-adv-x="495" 
d="M330 0h-166l-154 520h92l145 -520l148 520h90z" />
    <glyph glyph-name="w" unicode="w" horiz-adv-x="731" 
d="M290 0h-157l-123 520h91l113 -520l77 520h151l75 -520l119 520h85l-127 -520h-155l-71 520z" />
    <glyph glyph-name="x" unicode="x" horiz-adv-x="517" 
d="M124 0h-104l185 266l-173 254h108l120 -188l121 188h102l-176 -251l190 -269h-106l-134 200z" />
    <glyph glyph-name="y" unicode="y" horiz-adv-x="500" 
d="M403 520h84l-211 -733h-88zM251 0h-85l-153 520h84z" />
    <glyph glyph-name="z" unicode="z" horiz-adv-x="499" 
d="M453 0h-419v75l307 370h-287v75h393v-75l-311 -370h317v-75z" />
    <glyph glyph-name="braceleft" unicode="{" horiz-adv-x="319" 
d="M279 814v-59h-36q-39 0 -51 -27.5t-12 -77.5v-193q0 -70 -70 -100q70 -30 70 -100v-193q0 -32 3 -52t18 -36.5t42 -16.5h36v-59q-22 -10 -47 -10q-79 0 -110.5 47.5t-31.5 134.5v165q0 47 -20 68.5t-50 21.5v60q30 0 50 21.5t20 68.5v165q0 87 31.5 134.5t110.5 47.5
q25 0 47 -10z" />
    <glyph glyph-name="bar" unicode="|" horiz-adv-x="255" 
d="M175 -100h-95v920h95v-920z" />
    <glyph glyph-name="braceright" unicode="}" horiz-adv-x="319" 
d="M40 755v59q22 10 47 10q79 0 110.5 -47.5t31.5 -134.5v-165q0 -47 20 -68.5t50 -21.5v-60q-30 0 -50 -21.5t-20 -68.5v-165q0 -87 -31.5 -134.5t-110.5 -47.5q-25 0 -47 10v59h36q39 0 51 27.5t12 77.5v193q0 70 70 100q-70 30 -70 100v193q0 32 -3 52t-18 36.5t-42 16.5
h-36z" />
    <glyph glyph-name="asciitilde" unicode="~" horiz-adv-x="526" 
d="M30 290v100q57 60 135 60q30 0 58.5 -14t47 -31t43 -31t47.5 -14q69 0 135 70v-100q-57 -60 -135 -60q-30 0 -58.5 14t-47 31t-43 31t-47.5 14q-68 0 -135 -70z" />
    <glyph glyph-name="exclamdown" unicode="&#xa1;" horiz-adv-x="239" 
d="M91 342h56l22 -542h-99zM74 520h91v-100h-91v100z" />
    <glyph glyph-name="cent" unicode="&#xa2;" horiz-adv-x="524" 
d="M236 -115v103q-93 12 -147 83.5t-54 188.5q0 116 54 188t147 84v103h75v-103q68 -10 113.5 -54t64.5 -116l-87 -20q-21 93 -91 112v-389q69 19 91 112l87 -20q-19 -73 -64.5 -116.5t-113.5 -52.5v-103h-75zM125 260q0 -85 30.5 -134t80.5 -62v391q-50 -13 -80.5 -61.5
t-30.5 -133.5z" />
    <glyph glyph-name="currency" unicode="&#xa4;" 
d="M449 137l-69 69q-45 -31 -101 -31q-57 0 -102 31l-68 -69l-53 53l71 72q-24 40 -24 98q0 55 24 98l-71 73l53 53l69 -70q43 31 101 31q56 0 101 -31l69 70l53 -53l-72 -73q25 -42 25 -98q0 -55 -24 -98l71 -72zM180 360q0 -53 28 -81.5t71 -28.5t71 28.5t28 81.5
t-28 81.5t-71 28.5q-41 0 -70 -28.5t-29 -81.5z" />
    <glyph glyph-name="yen" unicode="&#xa5;" horiz-adv-x="675" 
d="M385 0h-95v108h-150v75h150v55h-150v75h143l-273 407h115l217 -337l213 337h110l-274 -407h144v-75h-150v-55h150v-75h-150v-108z" />
    <glyph glyph-name="brokenbar" unicode="&#xa6;" horiz-adv-x="255" 
d="M175 -100h-95v425h95v-425zM80 410v410h95v-410h-95z" />
    <glyph glyph-name="section" unicode="&#xa7;" horiz-adv-x="493" 
d="M35 150l87 13q15 -103 129 -103q47 0 82 17t35 56q0 27 -15 39t-56 23l-127 34q-130 36 -130 147q0 33 18.5 60.5t41.5 40.5q-60 31 -60 104q0 77 57 115.5t144 38.5q90 0 140.5 -40.5t56.5 -109.5l-86 -12q-12 87 -113 87q-55 0 -84 -18.5t-29 -50.5q0 -16 10.5 -28
t22 -16.5t31.5 -10.5l140 -41q128 -37 128 -148q0 -31 -15 -59t-34 -41q49 -33 49 -104q0 -80 -61 -119t-149 -39q-95 0 -151 43t-62 122zM126 386q0 -25 19.5 -44t44.5 -26q146 -40 147 -40q31 19 31 54q0 66 -71 85l-120 32q-51 -17 -51 -61z" />
    <glyph glyph-name="copyright" unicode="&#xa9;" horiz-adv-x="590" 
d="M35 260q0 121 73 198t187 77t187 -77t73 -198t-73 -198t-187 -77t-187 77t-73 198zM111 260q0 -88 49 -146.5t135 -58.5t135 58.5t49 146.5t-49 146.5t-135 58.5t-135 -58.5t-49 -146.5zM228 260q0 -39 17.5 -63t49.5 -24q48 0 61 51l65 -13q-23 -104 -126 -104
q-62 0 -97.5 44.5t-35.5 108.5t35.5 108t97.5 44q103 0 126 -103l-65 -13q-15 50 -61 50q-32 0 -49.5 -24t-17.5 -62z" />
    <glyph glyph-name="guillemotleft" unicode="&#xab;" horiz-adv-x="411" 
d="M180 263l115 169h76l-94 -169l94 -169h-76zM40 263l115 169h76l-94 -169l94 -169h-76z" />
    <glyph glyph-name="registered" unicode="&#xae;" horiz-adv-x="590" 
d="M35 260q0 121 73 198t187 77t187 -77t73 -198t-73 -198t-187 -77t-187 77t-73 198zM192 123v288h96q111 0 111 -84q0 -64 -66 -78q33 -8 59 -59l35 -67h-71l-23 48q-16 33 -30.5 45.5t-40.5 12.5h-7v-106h-63zM255 357v-74h32q48 0 48 39q0 35 -49 35h-31zM111 260
q0 -88 49 -146.5t135 -58.5t135 58.5t49 146.5t-49 146.5t-135 58.5t-135 -58.5t-49 -146.5z" />
    <glyph glyph-name="degree" unicode="&#xb0;" horiz-adv-x="360" 
d="M50 605q0 53 38.5 91.5t91.5 38.5q54 0 92 -38.5t38 -91.5q0 -54 -38 -92t-92 -38q-53 0 -91.5 38t-38.5 92zM112 605q0 -28 20 -48t48 -20t47.5 19.5t19.5 48.5q0 28 -19.5 47.5t-47.5 19.5t-48 -19.5t-20 -47.5z" />
    <glyph glyph-name="plusminus" unicode="&#xb1;" 
d="M315 415v-161h-75v161h-190v75h190v190h75v-190h191v-75h-191zM506 115h-456v75h456v-75z" />
    <glyph glyph-name="paragraph" unicode="&#xb6;" 
d="M291 -100h-80v516q-88 2 -143 56.5t-55 141.5q0 101 63 153.5t168 52.5h300v-85h-81v-835h-83v835h-89v-835z" />
    <glyph glyph-name="periodcentered" unicode="&#xb7;" horiz-adv-x="231" 
d="M161 212h-91v100h91v-100z" />
    <glyph glyph-name="guillemotright" unicode="&#xbb;" horiz-adv-x="411" 
d="M116 432l115 -169l-115 -169h-76l94 169l-94 169h76zM256 432l115 -169l-115 -169h-76l94 169l-94 169h76z" />
    <glyph glyph-name="questiondown" unicode="&#xbf;" 
d="M235 344h85v-27q0 -123 -91 -185q-85 -58 -85 -139q0 -66 37.5 -97t96.5 -31q55 0 91 35.5t43 105.5l86 -10q-9 -98 -68.5 -154.5t-150.5 -56.5q-104 0 -167 55t-63 147q0 35 9.5 64t32 55.5t37 40t46.5 40.5q35 29 47 57t14 73v27zM225 520h100v-100h-100v100z" />
    <glyph glyph-name="Agrave" unicode="&#xc0;" horiz-adv-x="675" 
d="M318 990l76 -187h-71l-123 187h118zM248 720h180l237 -720h-105l-60 175h-330l-61 -175h-99zM338 720l-143 -460h286z" />
    <glyph glyph-name="Aacute" unicode="&#xc1;" horiz-adv-x="675" 
d="M260 803l76 187h118l-123 -187h-71zM248 720h180l237 -720h-105l-60 175h-330l-61 -175h-99zM338 720l-143 -460h286z" />
    <glyph glyph-name="Acircumflex" unicode="&#xc2;" horiz-adv-x="675" 
d="M300 970h77l139 -200h-91l-87 131l-89 -131h-88zM248 720h180l237 -720h-105l-60 175h-330l-61 -175h-99zM338 720l-143 -460h286z" />
    <glyph glyph-name="Atilde" unicode="&#xc3;" horiz-adv-x="675" 
d="M163 810v91q37 40 105 40q31 0 77 -25t69 -25q20 0 48.5 12t46.5 38v-91q-37 -40 -105 -40q-31 0 -77 25t-69 25q-60 0 -95 -50zM248 720h180l237 -720h-105l-60 175h-330l-61 -175h-99zM338 720l-143 -460h286z" />
    <glyph glyph-name="Adieresis" unicode="&#xc4;" horiz-adv-x="675" 
d="M287 819h-90v101h90v-101zM477 819h-90v101h90v-101zM248 720h180l237 -720h-105l-60 175h-330l-61 -175h-99zM338 720l-143 -460h286z" />
    <glyph glyph-name="Aring" unicode="&#xc5;" horiz-adv-x="675" 
d="M208 905q0 53 38.5 91.5t91.5 38.5q54 0 92 -38.5t38 -91.5q0 -54 -38 -92t-92 -38q-53 0 -91.5 38t-38.5 92zM270 905q0 -28 20 -48t48 -20t47.5 19.5t19.5 48.5q0 28 -19.5 47.5t-47.5 19.5t-48 -19.5t-20 -47.5zM248 720h180l237 -720h-105l-60 175h-330l-61 -175h-99
zM338 720l-143 -460h286z" />
    <glyph glyph-name="AE" unicode="&#xc6;" horiz-adv-x="1064" 
d="M125 0h-105l457 720h507v-85h-402v-225h352v-85h-352v-240h412v-85h-507v172h-254zM487 257v323l-201 -323h201z" />
    <glyph glyph-name="Ccedilla" unicode="&#xc7;" horiz-adv-x="734" 
d="M419 -142q0 50 -38 50q-24 0 -33 -30l-45 17l38 93q-139 14 -215 117t-76 255q0 163 87 269t246 106q121 0 199 -62t102 -168l-97 -19q-16 79 -67.5 124t-136.5 45q-109 0 -171 -83t-62 -212q0 -132 59 -213.5t174 -81.5q78 0 129.5 44.5t74.5 123.5l97 -19
q-25 -104 -103 -166.5t-198 -62.5h-3l-12 -29h13q39 0 62.5 -26t23.5 -72t-23.5 -73t-62.5 -27q-62 0 -78 63l45 15q8 -28 33 -28q38 0 38 50z" />
    <glyph glyph-name="Egrave" unicode="&#xc8;" horiz-adv-x="657" 
d="M587 0h-507v720h497v-85h-402v-225h352v-85h-352v-240h412v-85zM318 990l76 -187h-71l-123 187h118z" />
    <glyph glyph-name="Eacute" unicode="&#xc9;" horiz-adv-x="657" 
d="M80 0h507v85h-412v240h352v85h-352v225h402v85h-497v-720zM280 803l76 187h118l-123 -187h-71z" />
    <glyph glyph-name="Ecircumflex" unicode="&#xca;" horiz-adv-x="657" 
d="M587 0h-507v720h497v-85h-402v-225h352v-85h-352v-240h412v-85zM296 950h77l139 -180h-91l-87 111l-89 -111h-88z" />
    <glyph glyph-name="Edieresis" unicode="&#xcb;" horiz-adv-x="657" 
d="M275 819h-90v101h90v-101zM475 819h-90v101h90v-101zM587 0h-507v720h497v-85h-402v-225h352v-85h-352v-240h412v-85z" />
    <glyph glyph-name="Igrave" unicode="&#xcc;" horiz-adv-x="255" 
d="M175 0h-95v720h95v-720zM108 990l76 -187h-71l-123 187h118z" />
    <glyph glyph-name="Iacute" unicode="&#xcd;" horiz-adv-x="255" 
d="M80 0h95v720h-95v-720zM70 803l76 187h118l-123 -187h-71z" />
    <glyph glyph-name="Icircumflex" unicode="&#xce;" horiz-adv-x="255" 
d="M175 0h-95v720h95v-720zM90 950h77l139 -180h-91l-87 111l-89 -111h-88z" />
    <glyph glyph-name="Idieresis" unicode="&#xcf;" horiz-adv-x="255" 
d="M175 0h-95v720h95v-720zM98 819h-90v101h90v-101zM248 819h-90v101h90v-101z" />
    <glyph glyph-name="Eth" unicode="&#xd0;" horiz-adv-x="799" 
d="M405 0h-235v325h-150v75h150v320h224q174 0 264.5 -92t90.5 -266q0 -172 -86.5 -267t-257.5 -95zM265 325v-241h130q131 0 193.5 69t62.5 210q0 146 -66.5 209t-192.5 63h-127v-235h171v-75h-171z" />
    <glyph glyph-name="Ntilde" unicode="&#xd1;" horiz-adv-x="724" 
d="M193 810v91q37 40 105 40q31 0 77 -25t69 -25q20 0 48.5 12t46.5 38v-91q-37 -40 -105 -40q-31 0 -77 25t-69 25q-60 0 -95 -50zM171 0h-91v720h182l291 -720v716v4h91v-4v-716h-189l-284 720v-720z" />
    <glyph glyph-name="Ograve" unicode="&#xd2;" horiz-adv-x="785" 
d="M50 360q0 161 91.5 268t251.5 107q159 0 250.5 -107t91.5 -268t-91.5 -268t-250.5 -107q-160 0 -251.5 107t-91.5 268zM150 360q0 -130 63.5 -212.5t179.5 -82.5q110 0 176 83.5t66 211.5t-66 211.5t-176 83.5t-176.5 -83.5t-66.5 -211.5zM368 990l76 -187h-71l-123 187
h118z" />
    <glyph glyph-name="Oacute" unicode="&#xd3;" horiz-adv-x="785" 
d="M50 360q0 161 91.5 268t251.5 107q159 0 250.5 -107t91.5 -268t-91.5 -268t-250.5 -107q-160 0 -251.5 107t-91.5 268zM150 360q0 -130 63.5 -212.5t179.5 -82.5q110 0 176 83.5t66 211.5t-66 211.5t-176 83.5t-176.5 -83.5t-66.5 -211.5zM340 803l76 187h118l-123 -187
h-71z" />
    <glyph glyph-name="Ocircumflex" unicode="&#xd4;" horiz-adv-x="785" 
d="M50 360q0 161 91.5 268t251.5 107q159 0 250.5 -107t91.5 -268t-91.5 -268t-250.5 -107q-160 0 -251.5 107t-91.5 268zM150 360q0 -130 63.5 -212.5t179.5 -82.5q110 0 176 83.5t66 211.5t-66 211.5t-176 83.5t-176.5 -83.5t-66.5 -211.5zM356 950h77l149 -180h-91
l-97 121l-99 -121h-88z" />
    <glyph glyph-name="Otilde" unicode="&#xd5;" horiz-adv-x="785" 
d="M50 360q0 161 91.5 268t251.5 107q159 0 250.5 -107t91.5 -268t-91.5 -268t-250.5 -107q-160 0 -251.5 107t-91.5 268zM150 360q0 -130 63.5 -212.5t179.5 -82.5q110 0 176 83.5t66 211.5t-66 211.5t-176 83.5t-176.5 -83.5t-66.5 -211.5zM213 810v91q37 40 105 40
q31 0 77 -25t69 -25q20 0 48.5 12t46.5 38v-91q-37 -40 -105 -40q-31 0 -77 25t-69 25q-60 0 -95 -50z" />
    <glyph glyph-name="Odieresis" unicode="&#xd6;" horiz-adv-x="785" 
d="M50 360q0 161 91.5 268t251.5 107q159 0 250.5 -107t91.5 -268t-91.5 -268t-250.5 -107q-160 0 -251.5 107t-91.5 268zM150 360q0 -130 63.5 -212.5t179.5 -82.5q110 0 176 83.5t66 211.5t-66 211.5t-176 83.5t-176.5 -83.5t-66.5 -211.5zM329 819h-90v101h90v-101z
M549 819h-90v101h90v-101z" />
    <glyph glyph-name="multiply" unicode="&#xd7;" 
d="M278 329l-130 -130l-53 53l130 130l-130 131l53 53l130 -131l130 131l53 -53l-130 -131l130 -130l-53 -53z" />
    <glyph glyph-name="Oslash" unicode="&#xd8;" horiz-adv-x="785" 
d="M714 687l-60 -72q81 -102 81 -255q0 -161 -91.5 -268t-250.5 -107q-124 0 -211 68l-57 -68l-58 48l62 74q-79 100 -79 253q0 161 91.5 268t251.5 107q121 0 207 -67l56 67zM635 360q0 102 -45 180l-352 -420q61 -55 155 -55q110 0 176 83.5t66 211.5zM150 360
q0 -105 41 -179l351 418q-61 56 -149 56q-110 0 -176.5 -83.5t-66.5 -211.5z" />
    <glyph glyph-name="Ugrave" unicode="&#xd9;" horiz-adv-x="723" 
d="M548 297v423h95v-418q0 -146 -69.5 -231.5t-211.5 -85.5q-141 0 -211.5 86t-70.5 231v418h95v-423q0 -227 188 -227q185 0 185 227zM328 990l76 -187h-71l-123 187h118z" />
    <glyph glyph-name="Uacute" unicode="&#xda;" horiz-adv-x="723" 
d="M548 720v-423q0 -227 -185 -227q-188 0 -188 227v423h-95v-418q0 -145 70.5 -231t211.5 -86q142 0 211.5 85.5t69.5 231.5v418h-95zM300 803l76 187h118l-123 -187h-71z" />
    <glyph glyph-name="Ucircumflex" unicode="&#xdb;" horiz-adv-x="723" 
d="M548 297v423h95v-418q0 -146 -69.5 -231.5t-211.5 -85.5q-141 0 -211.5 86t-70.5 231v418h95v-423q0 -227 188 -227q185 0 185 227zM323 950h77l149 -180h-91l-97 121l-99 -121h-88z" />
    <glyph glyph-name="Udieresis" unicode="&#xdc;" horiz-adv-x="723" 
d="M548 297v423h95v-418q0 -146 -69.5 -231.5t-211.5 -85.5q-141 0 -211.5 86t-70.5 231v418h95v-423q0 -227 188 -227q185 0 185 227zM301 819h-90v101h90v-101zM511 819h-90v101h90v-101z" />
    <glyph glyph-name="Yacute" unicode="&#xdd;" horiz-adv-x="675" 
d="M290 0h95v303l280 417h-110l-213 -337l-217 337h-115l280 -417v-303zM280 803l76 187h118l-123 -187h-71z" />
    <glyph glyph-name="Thorn" unicode="&#xde;" horiz-adv-x="657" 
d="M175 0h-95v720h95v-140h155q277 0 277 -211q0 -219 -269 -219h-163v-150zM175 495v-260h165q169 0 169 131q0 39 -13 65.5t-37.5 40t-53 18.5t-67.5 5h-163z" />
    <glyph glyph-name="germandbls" unicode="&#xdf;" horiz-adv-x="623" 
d="M227 135h91q21 -75 93 -75q33 0 60 20.5t27 54.5q0 71 -71 85l-67 14q-57 12 -93.5 49t-36.5 98q0 38 16 65.5t38.5 43.5t45 29t38.5 29t16 36q0 21 -24.5 40t-70.5 19q-114 0 -114 -130v-513h-87v511q0 101 56.5 155.5t143.5 54.5q91 0 136 -38.5t45 -98.5
q0 -33 -16 -57.5t-38.5 -39t-44.5 -28t-38 -33t-16 -45.5q0 -46 64 -60l80 -18q55 -13 91.5 -52.5t36.5 -107.5q0 -75 -52.5 -116.5t-127.5 -41.5q-162 0 -181 150z" />
    <glyph glyph-name="agrave" unicode="&#xe0;" horiz-adv-x="544" 
d="M387 64q-71 -79 -175 -79q-77 0 -127 38.5t-50 113.5q0 149 204 168q104 9 142 27v20q0 111 -120 111q-97 0 -125 -104l-85 19q34 157 219 157q201 0 201 -201v-228q0 -76 28 -106h-91q-15 14 -21 64zM381 140v123q-29 -14 -132 -30q-27 -4 -43 -8.5t-36.5 -14t-30.5 -27
t-10 -42.5q0 -84 97 -84q46 0 88.5 26t66.5 57zM238 790l76 -187h-71l-123 187h118z" />
    <glyph glyph-name="aacute" unicode="&#xe1;" horiz-adv-x="544" 
d="M387 64q6 -50 21 -64h91q-28 30 -28 106v228q0 201 -201 201q-185 0 -219 -157l85 -19q28 104 125 104q120 0 120 -111v-20q-38 -18 -142 -27q-204 -19 -204 -168q0 -75 50 -113.5t127 -38.5q104 0 175 79zM381 263v-123q-24 -31 -66.5 -57t-88.5 -26q-97 0 -97 84
q0 25 10 42.5t30.5 27t36.5 14t43 8.5q103 16 132 30zM190 603l76 187h118l-123 -187h-71z" />
    <glyph glyph-name="acircumflex" unicode="&#xe2;" horiz-adv-x="544" 
d="M387 64q-71 -79 -175 -79q-77 0 -127 38.5t-50 113.5q0 149 204 168q104 9 142 27v20q0 111 -120 111q-97 0 -125 -104l-85 19q34 157 219 157q201 0 201 -201v-228q0 -76 28 -106h-91q-15 14 -21 64zM381 140v123q-29 -14 -132 -30q-27 -4 -43 -8.5t-36.5 -14t-30.5 -27
t-10 -42.5q0 -84 97 -84q46 0 88.5 26t66.5 57zM218 760h77l119 -160h-91l-67 101l-69 -101h-88z" />
    <glyph glyph-name="atilde" unicode="&#xe3;" horiz-adv-x="544" 
d="M387 64q-71 -79 -175 -79q-77 0 -127 38.5t-50 113.5q0 149 204 168q104 9 142 27v20q0 111 -120 111q-97 0 -125 -104l-85 19q34 157 219 157q201 0 201 -201v-228q0 -76 28 -106h-91q-15 14 -21 64zM381 140v123q-29 -14 -132 -30q-27 -4 -43 -8.5t-36.5 -14t-30.5 -27
t-10 -42.5q0 -84 97 -84q46 0 88.5 26t66.5 57zM111 610v85q37 40 95 40q31 0 72 -25t64 -25q50 0 85 50v-85q-37 -40 -95 -40q-31 0 -72 25t-64 25q-50 0 -85 -50z" />
    <glyph glyph-name="adieresis" unicode="&#xe4;" horiz-adv-x="544" 
d="M387 64q-71 -79 -175 -79q-77 0 -127 38.5t-50 113.5q0 149 204 168q104 9 142 27v20q0 111 -120 111q-97 0 -125 -104l-85 19q34 157 219 157q201 0 201 -201v-228q0 -76 28 -106h-91q-15 14 -21 64zM381 140v123q-29 -14 -132 -30q-27 -4 -43 -8.5t-36.5 -14t-30.5 -27
t-10 -42.5q0 -84 97 -84q46 0 88.5 26t66.5 57zM224 620h-91v100h91v-100zM404 620h-91v100h91v-100z" />
    <glyph glyph-name="aring" unicode="&#xe5;" horiz-adv-x="544" 
d="M387 64q6 -50 21 -64h91q-28 30 -28 106v228q0 201 -201 201q-185 0 -219 -157l85 -19q28 104 125 104q120 0 120 -111v-20q-38 -18 -142 -27q-204 -19 -204 -168q0 -75 50 -113.5t127 -38.5q104 0 175 79zM381 263v-123q-24 -31 -66.5 -57t-88.5 -26q-97 0 -97 84
q0 25 10 42.5t30.5 27t36.5 14t43 8.5q103 16 132 30zM127 735q0 53 38.5 91.5t91.5 38.5q54 0 92 -38.5t38 -91.5q0 -54 -38 -92t-92 -38q-53 0 -91.5 38t-38.5 92zM189 735q0 -28 20 -48t48 -20t47.5 19.5t19.5 48.5q0 28 -19.5 47.5t-47.5 19.5t-48 -19.5t-20 -47.5z" />
    <glyph glyph-name="ae" unicode="&#xe6;" horiz-adv-x="890" 
d="M844 237h-383q6 -88 49.5 -132.5t103.5 -44.5q47 0 86.5 30t52.5 86q14 -3 42.5 -9t42.5 -9q-22 -85 -82 -129t-147 -44q-114 0 -178 79q-83 -79 -189 -79q-94 0 -150.5 36.5t-56.5 115.5q0 149 204 168q92 8 132 27v20q0 111 -110 111q-97 0 -125 -104q-14 3 -42.5 9.5
t-42.5 9.5q34 157 219 157q114 0 162 -77q65 77 177 77q114 0 175 -73.5t61 -191.5q0 -26 -1 -33zM396 122q-25 56 -25 141q-34 -16 -122 -30q-27 -4 -43 -8.5t-36.5 -14t-30.5 -27t-10 -42.5q0 -84 117 -84q87 0 150 65zM609 460q-51 0 -92.5 -38t-52.5 -113h285
q-3 67 -40.5 109t-99.5 42z" />
    <glyph glyph-name="ccedilla" unicode="&#xe7;" horiz-adv-x="524" 
d="M293 -117q0 42 -31 42q-21 0 -28 -25l-37 14l31 75q-90 14 -141.5 85.5t-51.5 185.5q0 128 64.5 201.5t173.5 73.5q83 0 139 -45.5t77 -127.5l-87 -20q-27 118 -129 118q-64 0 -106 -50t-42 -150t42 -150t106 -50q102 0 129 117l87 -20q-21 -82 -77 -127t-139 -45h-14
l-8 -20h11q33 0 52 -21.5t19 -60.5t-19 -61t-52 -22q-52 0 -65 52l37 13q7 -24 28 -24q31 0 31 42z" />
    <glyph glyph-name="egrave" unicode="&#xe8;" horiz-adv-x="544" 
d="M508 237h-383q6 -88 49 -132.5t104 -44.5q48 0 87 30t52 86l85 -18q-22 -85 -82 -129t-147 -44q-109 0 -173.5 73.5t-64.5 201.5t64.5 201.5t173.5 73.5q114 0 175 -73.5t61 -191.5q0 -26 -1 -33zM273 460q-51 0 -92.5 -38t-52.5 -113h285q-3 67 -40.5 109t-99.5 42z
M248 790l76 -187h-71l-123 187h118z" />
    <glyph glyph-name="eacute" unicode="&#xe9;" horiz-adv-x="544" 
d="M508 237h-383q6 -88 49 -132.5t104 -44.5q48 0 87 30t52 86l85 -18q-22 -85 -82 -129t-147 -44q-109 0 -173.5 73.5t-64.5 201.5t64.5 201.5t173.5 73.5q114 0 175 -73.5t61 -191.5q0 -26 -1 -33zM273 460q-51 0 -92.5 -38t-52.5 -113h285q-3 67 -40.5 109t-99.5 42z
M210 603l76 187h118l-123 -187h-71z" />
    <glyph glyph-name="ecircumflex" unicode="&#xea;" horiz-adv-x="544" 
d="M508 237h-383q6 -88 49 -132.5t104 -44.5q48 0 87 30t52 86l85 -18q-22 -85 -82 -129t-147 -44q-109 0 -173.5 73.5t-64.5 201.5t64.5 201.5t173.5 73.5q114 0 175 -73.5t61 -191.5q0 -26 -1 -33zM273 460q-51 0 -92.5 -38t-52.5 -113h285q-3 67 -40.5 109t-99.5 42z
M236 760h77l119 -160h-91l-67 101l-69 -101h-88z" />
    <glyph glyph-name="edieresis" unicode="&#xeb;" horiz-adv-x="544" 
d="M219 620h-91v100h91v-100zM419 620h-91v100h91v-100zM508 237h-383q6 -88 49 -132.5t104 -44.5q48 0 87 30t52 86l85 -18q-22 -85 -82 -129t-147 -44q-109 0 -173.5 73.5t-64.5 201.5t64.5 201.5t173.5 73.5q114 0 175 -73.5t61 -191.5q0 -26 -1 -33zM273 460
q-51 0 -92.5 -38t-52.5 -113h285q-3 67 -40.5 109t-99.5 42z" />
    <glyph glyph-name="igrave" unicode="&#xec;" horiz-adv-x="220" 
d="M155 0h-90v520h90v-520zM88 790l76 -187h-71l-123 187h118z" />
    <glyph glyph-name="iacute" unicode="&#xed;" horiz-adv-x="220" 
d="M65 0h90v520h-90v-520zM60 603l76 187h118l-123 -187h-71z" />
    <glyph glyph-name="icircumflex" unicode="&#xee;" horiz-adv-x="220" 
d="M155 0h-90v520h90v-520zM73 760h77l119 -160h-91l-67 101l-69 -101h-88z" />
    <glyph glyph-name="idieresis" unicode="&#xef;" horiz-adv-x="220" 
d="M83 619h-90v101h90v-101zM155 0h-90v520h90v-520zM227 619h-90v101h90v-101z" />
    <glyph glyph-name="eth" unicode="&#xf0;" horiz-adv-x="553" 
d="M379 742l-32 -55q89 -59 131.5 -166.5t38.5 -240.5q-5 -137 -70 -216t-173 -79q-96 0 -167.5 71.5t-70.5 193.5q1 125 62 195t157 70q52 0 94.5 -21.5t66.5 -51.5q-6 50 -34.5 96.5t-74.5 79.5l-42 -73l-63 36l41 71q-52 18 -104 18v75q77 0 143 -25l34 58zM126 250
q-1 -96 46.5 -143t102.5 -47q67 0 111.5 45.5t45.5 144.5q2 97 -43 143.5t-106 46.5q-153 0 -157 -190z" />
    <glyph glyph-name="ntilde" unicode="&#xf1;" horiz-adv-x="555" 
d="M155 0h-90v520h81v-75q53 90 165 90q101 0 140 -56.5t39 -159.5v-319h-90v315q0 144 -107 144q-63 0 -100.5 -46t-37.5 -130v-283zM124 610v85q37 40 95 40q31 0 72 -25t64 -25q50 0 85 50v-85q-37 -40 -95 -40q-31 0 -72 25t-64 25q-50 0 -85 -50z" />
    <glyph glyph-name="ograve" unicode="&#xf2;" 
d="M35 260q0 127 67 201t176 74t176 -74t67 -201t-67 -201t-176 -74t-176 74t-67 201zM125 260q0 -100 44 -150t109 -50t109 50t44 150t-44 150t-109 50t-109 -50t-44 -150zM238 790l76 -187h-71l-123 187h118z" />
    <glyph glyph-name="oacute" unicode="&#xf3;" 
d="M35 260q0 127 67 201t176 74t176 -74t67 -201t-67 -201t-176 -74t-176 74t-67 201zM125 260q0 -100 44 -150t109 -50t109 50t44 150t-44 150t-109 50t-109 -50t-44 -150zM220 603l76 187h118l-123 -187h-71z" />
    <glyph glyph-name="ocircumflex" unicode="&#xf4;" 
d="M35 260q0 127 67 201t176 74t176 -74t67 -201t-67 -201t-176 -74t-176 74t-67 201zM125 260q0 -100 44 -150t109 -50t109 50t44 150t-44 150t-109 50t-109 -50t-44 -150zM240 760h77l119 -160h-91l-67 101l-69 -101h-88z" />
    <glyph glyph-name="otilde" unicode="&#xf5;" 
d="M35 260q0 127 67 201t176 74t176 -74t67 -201t-67 -201t-176 -74t-176 74t-67 201zM125 260q0 -100 44 -150t109 -50t109 50t44 150t-44 150t-109 50t-109 -50t-44 -150zM122 610v85q37 40 95 40q31 0 72 -25t64 -25q50 0 85 50v-85q-37 -40 -95 -40q-31 0 -72 25t-64 25
q-50 0 -85 -50z" />
    <glyph glyph-name="odieresis" unicode="&#xf6;" 
d="M35 260q0 127 67 201t176 74t176 -74t67 -201t-67 -201t-176 -74t-176 74t-67 201zM125 260q0 -100 44 -150t109 -50t109 50t44 150t-44 150t-109 50t-109 -50t-44 -150zM228 620h-91v100h91v-100zM418 620h-91v100h91v-100z" />
    <glyph glyph-name="divide" unicode="&#xf7;" 
d="M486 325h-416v75h416v-75zM323 480h-91v100h91v-100zM323 145h-91v100h91v-100z" />
    <glyph glyph-name="oslash" unicode="&#xf8;" 
d="M515 486l-42 -50q48 -70 48 -176q0 -127 -67 -201t-176 -74q-84 0 -145 45l-38 -45l-57 49l43 51q-46 69 -46 175q0 127 67 201t176 74q82 0 143 -44l37 44zM431 260q0 59 -18 105l-228 -272q39 -33 93 -33q65 0 109 50t44 150zM125 260q0 -59 16 -102l227 270
q-38 32 -90 32q-65 0 -109 -50t-44 -150z" />
    <glyph glyph-name="ugrave" unicode="&#xf9;" horiz-adv-x="555" 
d="M400 520h90v-520h-81v75q-60 -90 -165 -90q-101 0 -140 56.5t-39 159.5v319h90v-315q0 -144 107 -144q63 0 100.5 46t37.5 130v283zM248 790l76 -187h-71l-123 187h118z" />
    <glyph glyph-name="uacute" unicode="&#xfa;" horiz-adv-x="555" 
d="M490 520h-90v-283q0 -84 -37.5 -130t-100.5 -46q-107 0 -107 144v315h-90v-319q0 -103 39 -159.5t140 -56.5q105 0 165 90v-75h81v520zM220 603l76 187h118l-123 -187h-71z" />
    <glyph glyph-name="ucircumflex" unicode="&#xfb;" horiz-adv-x="555" 
d="M400 520h90v-520h-81v75q-60 -90 -165 -90q-101 0 -140 56.5t-39 159.5v319h90v-315q0 -144 107 -144q63 0 100.5 46t37.5 130v283zM240 760h77l119 -160h-91l-67 101l-69 -101h-88z" />
    <glyph glyph-name="udieresis" unicode="&#xfc;" horiz-adv-x="555" 
d="M400 520h90v-520h-81v75q-60 -90 -165 -90q-101 0 -140 56.5t-39 159.5v319h90v-315q0 -144 107 -144q63 0 100.5 46t37.5 130v283zM228 620h-91v100h91v-100zM418 620h-91v100h91v-100z" />
    <glyph glyph-name="yacute" unicode="&#xfd;" horiz-adv-x="500" 
d="M61 -200q27 -10 57 -10q59 0 94 38.5t64 115.5l214 576h-88l-148 -405l-151 405h-93l202 -515l-23 -63q-31 -73 -87 -73q-26 0 -51 9zM200 603l76 187h118l-123 -187h-71z" />
    <glyph glyph-name="thorn" unicode="&#xfe;" horiz-adv-x="550" 
d="M155 -200h-90v720h80v-71q52 86 147 86q106 0 164.5 -75.5t58.5 -199.5t-58.5 -199.5t-164.5 -75.5q-87 0 -137 70v-255zM144 260q0 -95 40.5 -147.5t102.5 -52.5t100 52t38 148t-38 148t-100 52q-56 0 -99.5 -53.5t-43.5 -146.5z" />
    <glyph glyph-name="ydieresis" unicode="&#xff;" horiz-adv-x="500" 
d="M61 -200l-10 78q25 -9 51 -9q56 0 87 73l23 63l-202 515h93l151 -405l148 405h88l-214 -576q-29 -77 -64 -115.5t-94 -38.5q-30 0 -57 10zM204 620h-91v100h91v-100zM394 620h-91v100h91v-100z" />
    <glyph glyph-name="Abreve" unicode="&#x102;" horiz-adv-x="675" 
d="M446 920h70q0 -69 -45.5 -118t-130.5 -49q-84 0 -128 49t-44 118h70q9 -86 102 -86q97 0 106 86zM248 720h180l237 -720h-105l-60 175h-330l-61 -175h-99zM338 720l-143 -460h286z" />
    <glyph glyph-name="abreve" unicode="&#x103;" horiz-adv-x="544" 
d="M387 64q-71 -79 -175 -79q-77 0 -127 38.5t-50 113.5q0 149 204 168q104 9 142 27v20q0 111 -120 111q-97 0 -125 -104l-85 19q34 157 219 157q201 0 201 -201v-228q0 -76 28 -106h-91q-15 14 -21 64zM381 140v123q-29 -14 -132 -30q-27 -4 -43 -8.5t-36.5 -14t-30.5 -27
t-10 -42.5q0 -84 97 -84q46 0 88.5 26t66.5 57zM371 720h60q0 -67 -37 -107t-109 -40t-107 40t-35 107h60q8 -76 82 -76q37 0 59.5 19.5t26.5 56.5z" />
    <glyph glyph-name="Aogonek" unicode="&#x104;" horiz-adv-x="675" 
d="M338 720h90l237 -720h-23q-36 0 -61 -22t-25 -53q0 -28 16 -46t41 -18q43 0 65 42l42 -39q-38 -68 -112 -68q-48 0 -83 30t-35 85q0 38 20.5 63.5t49.5 25.5l-60 175h-330l-61 -175h-99l238 720h90l-143 -460h286z" />
    <glyph glyph-name="aogonek" unicode="&#x105;" horiz-adv-x="544" 
d="M387 64q-71 -79 -175 -79q-77 0 -127 38.5t-50 113.5q0 149 204 168q104 9 142 27v20q0 111 -120 111q-97 0 -125 -104l-85 19q34 157 219 157q201 0 201 -201v-228q0 -76 28 -106h-30q-35 0 -59 -20t-24 -55q0 -28 16 -46t41 -18q43 0 65 42l42 -39q-38 -68 -112 -68
q-48 0 -83 30t-35 85q0 41 22.5 68t58.5 38q-12 15 -14 47zM381 140v123q-29 -14 -132 -30q-27 -4 -43 -8.5t-36.5 -14t-30.5 -27t-10 -42.5q0 -84 97 -84q46 0 88.5 26t66.5 57z" />
    <glyph glyph-name="Cacute" unicode="&#x106;" horiz-adv-x="734" 
d="M150 360q0 -132 59 -213.5t174 -81.5q78 0 129.5 44.5t74.5 123.5l97 -19q-25 -104 -103 -166.5t-198 -62.5q-159 0 -246 106t-87 269t87 269t246 106q121 0 199 -62t102 -168l-97 -19q-16 79 -67.5 124t-136.5 45q-109 0 -171 -83t-62 -212zM310 803l76 187h118
l-123 -187h-71z" />
    <glyph glyph-name="cacute" unicode="&#x107;" horiz-adv-x="524" 
d="M125 260q0 -100 42 -150t106 -50q102 0 129 117l87 -20q-21 -82 -77 -127t-139 -45q-109 0 -173.5 73.5t-64.5 201.5t64.5 201.5t173.5 73.5q83 0 139 -45.5t77 -127.5l-87 -20q-27 118 -129 118q-64 0 -106 -50t-42 -150zM200 603l76 187h118l-123 -187h-71z" />
    <glyph glyph-name="Ccaron" unicode="&#x10c;" horiz-adv-x="734" 
d="M150 360q0 -132 59 -213.5t174 -81.5q78 0 129.5 44.5t74.5 123.5l97 -19q-25 -104 -103 -166.5t-198 -62.5q-159 0 -246 106t-87 269t87 269t246 106q121 0 199 -62t102 -168l-97 -19q-16 79 -67.5 124t-136.5 45q-109 0 -171 -83t-62 -212zM421 790h-77l-139 180h91
l87 -121l89 121h88z" />
    <glyph glyph-name="ccaron" unicode="&#x10d;" horiz-adv-x="524" 
d="M125 260q0 -100 42 -150t106 -50q102 0 129 117l87 -20q-21 -82 -77 -127t-139 -45q-109 0 -173.5 73.5t-64.5 201.5t64.5 201.5t173.5 73.5q83 0 139 -45.5t77 -127.5l-87 -20q-27 118 -129 118q-64 0 -106 -50t-42 -150zM305 600h-77l-119 160h91l67 -101l69 101h88z
" />
    <glyph glyph-name="Dcaron" unicode="&#x10e;" horiz-adv-x="709" 
d="M315 0h-235v720h224q174 0 264.5 -92t90.5 -266q0 -172 -86.5 -267t-257.5 -95zM175 635v-551h130q131 0 193.5 69t62.5 210q0 146 -66.5 209t-192.5 63h-127zM339 790h-77l-139 180h91l87 -121l89 121h88z" />
    <glyph glyph-name="dcaron" unicode="&#x10f;" horiz-adv-x="650" 
d="M395 720h90v-720h-80v71q-52 -86 -147 -86q-106 0 -164.5 75.5t-58.5 199.5t58.5 199.5t164.5 75.5q87 0 137 -70v255zM406 260q0 95 -40.5 147.5t-102.5 52.5t-100 -52t-38 -148t38 -148t100 -52q56 0 99.5 53.5t43.5 146.5zM601 620h-51v100h100v-100q0 -106 -82 -142
l-24 38q57 24 57 104z" />
    <glyph glyph-name="Dcroat" unicode="&#x110;" horiz-adv-x="799" 
d="M405 0h-235v325h-150v75h150v320h224q174 0 264.5 -92t90.5 -266q0 -172 -86.5 -267t-257.5 -95zM265 325v-241h130q131 0 193.5 69t62.5 210q0 146 -66.5 209t-192.5 63h-127v-235h171v-75h-171z" />
    <glyph glyph-name="dcroat" unicode="&#x111;" horiz-adv-x="550" 
d="M395 577h-75v66h75v77h90v-77h65v-66h-65v-577h-80v71q-52 -86 -147 -86q-106 0 -164.5 75.5t-58.5 199.5t58.5 199.5t164.5 75.5q87 0 137 -70v112zM406 260q0 95 -40.5 147.5t-102.5 52.5t-100 -52t-38 -148t38 -148t100 -52q56 0 99.5 53.5t43.5 146.5z" />
    <glyph glyph-name="Eogonek" unicode="&#x118;" horiz-adv-x="657" 
d="M464 0h-384v720h497v-85h-402v-225h352v-85h-352v-240h412v-85h-33q-33 0 -55.5 -22.5t-22.5 -52.5q0 -28 16 -46t41 -18q43 0 65 42l42 -39q-38 -68 -112 -68q-48 0 -83 30t-35 85q0 28 15 53t39 36z" />
    <glyph glyph-name="eogonek" unicode="&#x119;" horiz-adv-x="544" 
d="M508 237h-383q6 -88 49 -132.5t104 -44.5q48 0 87 30t52 86q14 -3 42.5 -9t42.5 -9q-14 -53 -39.5 -82.5t-75.5 -65.5q-26 -19 -38.5 -37t-12.5 -48q0 -28 16 -46t41 -18q43 0 65 42l42 -39q-38 -68 -112 -68q-48 0 -83 30t-35 85q0 47 32 76q-18 -2 -29 -2
q-109 0 -173.5 73.5t-64.5 201.5t64.5 201.5t173.5 73.5q114 0 175 -73.5t61 -191.5q0 -26 -1 -33zM273 460q-51 0 -92.5 -38t-52.5 -113h285q-3 67 -40.5 109t-99.5 42z" />
    <glyph glyph-name="Ecaron" unicode="&#x11a;" horiz-adv-x="657" 
d="M587 0h-507v720h497v-85h-402v-225h352v-85h-352v-240h412v-85zM370 790h-77l-139 180h91l87 -121l89 121h88z" />
    <glyph glyph-name="ecaron" unicode="&#x11b;" horiz-adv-x="544" 
d="M508 237h-383q6 -88 49 -132.5t104 -44.5q48 0 87 30t52 86l85 -18q-22 -85 -82 -129t-147 -44q-109 0 -173.5 73.5t-64.5 201.5t64.5 201.5t173.5 73.5q114 0 175 -73.5t61 -191.5q0 -26 -1 -33zM273 460q-51 0 -92.5 -38t-52.5 -113h285q-3 67 -40.5 109t-99.5 42z
M310 600h-77l-119 160h91l67 -101l69 101h88z" />
    <glyph glyph-name="Lacute" unicode="&#x139;" horiz-adv-x="608" 
d="M80 0h498v85h-403v635h-95v-720zM100 803l76 187h118l-123 -187h-71z" />
    <glyph glyph-name="lacute" unicode="&#x13a;" horiz-adv-x="220" 
d="M65 0h90v735l-90 -40v-695zM60 803l76 187h118l-123 -187h-71z" />
    <glyph glyph-name="Lcaron" unicode="&#x13d;" horiz-adv-x="608" 
d="M578 0h-498v720h95v-635h403v-85zM169 790h-77l-139 180h91l87 -121l89 121h88z" />
    <glyph glyph-name="lcaron" unicode="&#x13e;" horiz-adv-x="320" 
d="M155 0h-90v695l90 40v-735zM271 620h-51v100h100v-100q0 -106 -82 -142l-24 38q57 24 57 104z" />
    <glyph glyph-name="Lslash" unicode="&#x141;" horiz-adv-x="668" 
d="M638 0h-498v333l-82 -51l-38 65l120 74v299h95v-240l87 55l38 -65l-125 -78v-307h403v-85z" />
    <glyph glyph-name="lslash" unicode="&#x142;" horiz-adv-x="380" 
d="M237 0h-90v337l-89 -55l-38 65l127 79v269l90 40v-253l85 53l38 -65l-123 -77v-393z" />
    <glyph glyph-name="Nacute" unicode="&#x143;" horiz-adv-x="724" 
d="M320 803l76 187h118l-123 -187h-71zM171 0h-91v720h182l291 -720v716v4h91v-4v-716h-189l-284 720v-720z" />
    <glyph glyph-name="nacute" unicode="&#x144;" horiz-adv-x="555" 
d="M65 0h90v283q0 84 37.5 130t100.5 46q107 0 107 -144v-315h90v319q0 103 -39 159.5t-140 56.5q-112 0 -165 -90v75h-81v-520zM190 603l76 187h118l-123 -187h-71z" />
    <glyph glyph-name="Ncaron" unicode="&#x147;" horiz-adv-x="724" 
d="M400 790h-77l-139 180h91l87 -121l89 121h88zM171 0h-91v720h182l291 -720v716v4h91v-4v-716h-189l-284 720v-720z" />
    <glyph glyph-name="ncaron" unicode="&#x148;" horiz-adv-x="555" 
d="M155 0h-90v520h81v-75q53 90 165 90q101 0 140 -56.5t39 -159.5v-319h-90v315q0 144 -107 144q-63 0 -100.5 -46t-37.5 -130v-283zM299 600h-77l-119 160h91l67 -101l69 101h88z" />
    <glyph glyph-name="Ohungarumlaut" unicode="&#x150;" horiz-adv-x="785" 
d="M50 360q0 161 91.5 268t251.5 107q159 0 250.5 -107t91.5 -268t-91.5 -268t-250.5 -107q-160 0 -251.5 107t-91.5 268zM150 360q0 -130 63.5 -212.5t179.5 -82.5q110 0 176 83.5t66 211.5t-66 211.5t-176 83.5t-176.5 -83.5t-66.5 -211.5zM230 803l76 187h118l-123 -187
h-71zM450 803l76 187h118l-123 -187h-71z" />
    <glyph glyph-name="ohungarumlaut" unicode="&#x151;" 
d="M35 260q0 127 67 201t176 74t176 -74t67 -201t-67 -201t-176 -74t-176 74t-67 201zM125 260q0 -100 44 -150t109 -50t109 50t44 150t-44 150t-109 50t-109 -50t-44 -150zM122 603l76 187h118l-123 -187h-71zM312 603l76 187h118l-123 -187h-71z" />
    <glyph glyph-name="OE" unicode="&#x152;" horiz-adv-x="1031" 
d="M961 0h-567q-171 0 -257.5 95t-86.5 267q0 174 90.5 266t264.5 92h546v-85h-372v-225h322v-85h-322v-240h382v-85zM484 84v551h-77q-126 0 -192.5 -63t-66.5 -209q0 -141 62.5 -210t193.5 -69h80z" />
    <glyph glyph-name="oe" unicode="&#x153;" horiz-adv-x="940" 
d="M35 260q0 127 67 201t176 74q136 0 197 -121q58 121 194 121q114 0 175 -73.5t61 -191.5q0 -26 -1 -33h-383q6 -88 49 -132.5t104 -44.5q48 0 87 30t52 86l85 -18q-22 -85 -82 -129t-147 -44q-136 0 -194 121q-61 -121 -197 -121q-109 0 -176 74t-67 201zM125 260
q0 -100 44 -150t109 -50t109 50t44 150t-44 150t-109 50t-109 -50t-44 -150zM669 460q-51 0 -92.5 -38t-52.5 -113h285q-3 67 -40.5 109t-99.5 42z" />
    <glyph glyph-name="Racute" unicode="&#x154;" horiz-adv-x="677" 
d="M230 803l76 187h118l-123 -187h-71zM554 0l-243 300h-43h-93v-300h-95v720h240q57 0 105 -11t87.5 -34.5t62 -65.5t22.5 -100q0 -162 -182 -194q-1 0 -3 -1l255 -314h-113zM175 635v-260h155q169 0 169 131q0 129 -171 129h-153z" />
    <glyph glyph-name="racute" unicode="&#x155;" horiz-adv-x="385" 
d="M65 0h90v281q0 78 33 123.5t96 45.5q38 0 69 -22l27 79q-35 28 -92 28q-92 0 -142 -105v90h-81v-520zM140 603l76 187h118l-123 -187h-71z" />
    <glyph glyph-name="Rcaron" unicode="&#x158;" horiz-adv-x="677" 
d="M369 790h-77l-139 180h91l87 -121l89 121h88zM554 0l-243 300h-43h-93v-300h-95v720h240q57 0 105 -11t87.5 -34.5t62 -65.5t22.5 -100q0 -162 -182 -194q-1 0 -3 -1l255 -314h-113zM175 635v-260h155q169 0 169 131q0 129 -171 129h-153z" />
    <glyph glyph-name="rcaron" unicode="&#x159;" horiz-adv-x="385" 
d="M155 0h-90v520h81v-90q50 105 142 105q57 0 92 -28l-27 -79q-31 22 -69 22q-63 0 -96 -45.5t-33 -123.5v-281zM247 600h-77l-119 160h91l67 -101l69 101h88z" />
    <glyph glyph-name="Sacute" unicode="&#x15a;" horiz-adv-x="665" 
d="M50 230q8 -121 85.5 -183t214.5 -62q67 0 125.5 22t99 72t40.5 120q0 78 -46 123.5t-131 69.5q-168 46 -208 62q-61 22 -61 83q0 58 47.5 88t111.5 30q155 0 169 -148l96 7q-7 111 -77 166t-192 55q-99 0 -173 -53.5t-74 -150.5q0 -60 29.5 -101.5t118.5 -70.5
q17 -5 102.5 -28t106.5 -31q79 -31 79 -106q0 -58 -45 -93.5t-122 -35.5q-87 0 -141.5 44.5t-60.5 128.5zM260 803l76 187h118l-123 -187h-71z" />
    <glyph glyph-name="sacute" unicode="&#x15b;" horiz-adv-x="493" 
d="M35 150q6 -79 62 -122t151 -43q88 0 149 39t61 119q0 115 -128 150l-140 38q-64 17 -64 60q0 32 29 50.5t84 18.5q101 0 113 -87l86 12q-6 69 -56.5 109.5t-140.5 40.5q-87 0 -144 -38.5t-57 -115.5q0 -59 34.5 -89.5t95.5 -47.5l127 -34q39 -10 55 -27.5t16 -47.5
q0 -39 -35.5 -57t-81.5 -18q-114 0 -129 103zM170 603l76 187h118l-123 -187h-71z" />
    <glyph glyph-name="Scaron" unicode="&#x160;" horiz-adv-x="665" 
d="M50 230l94 8q6 -84 60.5 -128.5t141.5 -44.5q77 0 122 35.5t45 93.5q0 75 -79 106q-21 8 -106.5 31t-102.5 28q-89 29 -118.5 70.5t-29.5 101.5q0 97 74 150.5t173 53.5q122 0 192 -55t77 -166l-96 -7q-14 148 -169 148q-64 0 -111.5 -30t-47.5 -88q0 -61 61 -83
q40 -16 208 -62q85 -24 131 -69.5t46 -123.5q0 -70 -40.5 -120t-99 -72t-125.5 -22q-137 0 -214.5 62t-85.5 183zM369 790h-77l-139 180h91l87 -121l89 121h88z" />
    <glyph glyph-name="scaron" unicode="&#x161;" horiz-adv-x="493" 
d="M35 150l87 13q15 -103 129 -103q46 0 81.5 18t35.5 57q0 30 -16 47.5t-55 27.5l-127 34q-61 17 -95.5 47.5t-34.5 89.5q0 77 57 115.5t144 38.5q90 0 140.5 -40.5t56.5 -109.5l-86 -12q-12 87 -113 87q-55 0 -84 -18.5t-29 -50.5q0 -43 64 -60l140 -38q128 -35 128 -150
q0 -80 -61 -119t-149 -39q-95 0 -151 43t-62 122zM277 600h-77l-119 160h91l67 -101l69 101h88z" />
    <glyph glyph-name="Tcommaaccent" unicode="&#x162;" horiz-adv-x="619" 
d="M357 0h-95v635h-242v85h579v-85h-242v-635zM311 -200h-51v100h100v-100q0 -106 -82 -142l-24 38q57 24 57 104z" />
    <glyph glyph-name="tcommaaccent" unicode="&#x163;" horiz-adv-x="322" 
d="M272 76l10 -76q-33 -10 -66 -10q-76 0 -99 38t-23 124v299h-74v69h74v137l90 43v-180h89v-69h-89v-304q0 -22 1 -32t5 -22.5t14 -17.5t27 -5q22 0 41 6zM181 -200h-51v100h100v-100q0 -106 -82 -142l-24 38q57 24 57 104z" />
    <glyph glyph-name="Tcaron" unicode="&#x164;" horiz-adv-x="619" 
d="M357 0h-95v635h-242v85h579v-85h-242v-635zM348 790h-77l-139 180h91l87 -121l89 121h88z" />
    <glyph glyph-name="tcaron" unicode="&#x165;" horiz-adv-x="420" 
d="M272 76l10 -76q-33 -10 -66 -10q-76 0 -99 38t-23 124v299h-74v69h74v137l90 43v-180h89v-69h-89v-304q0 -22 1 -32t5 -22.5t14 -17.5t27 -5q22 0 41 6zM371 620h-51v100h100v-100q0 -106 -82 -142l-24 38q57 24 57 104z" />
    <glyph glyph-name="Uring" unicode="&#x16e;" horiz-adv-x="723" 
d="M548 720v-423q0 -227 -185 -227q-188 0 -188 227v423h-95v-418q0 -145 70.5 -231t211.5 -86q142 0 211.5 85.5t69.5 231.5v418h-95zM231 905q0 53 38.5 91.5t91.5 38.5q54 0 92 -38.5t38 -91.5q0 -54 -38 -92t-92 -38q-53 0 -91.5 38t-38.5 92zM293 905q0 -28 20 -48
t48 -20t47.5 19.5t19.5 48.5q0 28 -19.5 47.5t-47.5 19.5t-48 -19.5t-20 -47.5z" />
    <glyph glyph-name="uring" unicode="&#x16f;" horiz-adv-x="555" 
d="M490 520h-90v-283q0 -84 -37.5 -130t-100.5 -46q-107 0 -107 144v315h-90v-319q0 -103 39 -159.5t140 -56.5q105 0 165 90v-75h81v520zM149 735q0 53 38.5 91.5t91.5 38.5q54 0 92 -38.5t38 -91.5q0 -54 -38 -92t-92 -38q-53 0 -91.5 38t-38.5 92zM211 735q0 -28 20 -48
t48 -20t47.5 19.5t19.5 48.5q0 28 -19.5 47.5t-47.5 19.5t-48 -19.5t-20 -47.5z" />
    <glyph glyph-name="Uhungarumlaut" unicode="&#x170;" horiz-adv-x="723" 
d="M548 720v-423q0 -227 -185 -227q-188 0 -188 227v423h-95v-418q0 -145 70.5 -231t211.5 -86q142 0 211.5 85.5t69.5 231.5v418h-95zM190 803l76 187h118l-123 -187h-71zM410 803l76 187h118l-123 -187h-71z" />
    <glyph glyph-name="uhungarumlaut" unicode="&#x171;" horiz-adv-x="555" 
d="M490 520h-90v-283q0 -84 -37.5 -130t-100.5 -46q-107 0 -107 144v315h-90v-319q0 -103 39 -159.5t140 -56.5q105 0 165 90v-75h81v520zM120 603l76 187h118l-123 -187h-71zM300 603l76 187h118l-123 -187h-71z" />
    <glyph glyph-name="Ydieresis" unicode="&#x178;" horiz-adv-x="675" 
d="M385 0h-95v303l-280 417h115l217 -337l213 337h110l-280 -417v-303zM276 819h-90v101h90v-101zM486 819h-90v101h90v-101z" />
    <glyph glyph-name="Zacute" unicode="&#x179;" horiz-adv-x="672" 
d="M60 0h552v85h-443l433 550v85h-522v-85h408l-428 -550v-85zM280 803l76 187h118l-123 -187h-71z" />
    <glyph glyph-name="zacute" unicode="&#x17a;" horiz-adv-x="499" 
d="M40 0h419v75h-318l312 370v75h-394v-75h288l-307 -370v-75zM180 603l76 187h118l-123 -187h-71z" />
    <glyph glyph-name="Zdotaccent" unicode="&#x17b;" horiz-adv-x="672" 
d="M612 0h-552v85l428 550h-408v85h522v-85l-433 -550h443v-85zM384 800h-91v100h91v-100z" />
    <glyph glyph-name="zdotaccent" unicode="&#x17c;" horiz-adv-x="499" 
d="M459 0h-419v75l307 370h-288v75h394v-75l-312 -370h318v-75zM294 619h-90v101h90v-101z" />
    <glyph glyph-name="Zcaron" unicode="&#x17d;" horiz-adv-x="672" 
d="M612 0h-552v85l428 550h-408v85h522v-85l-433 -550h443v-85zM369 790h-77l-139 180h91l87 -121l89 121h88z" />
    <glyph glyph-name="zcaron" unicode="&#x17e;" horiz-adv-x="499" 
d="M459 0h-419v75l307 370h-288v75h394v-75l-312 -370h318v-75zM288 600h-77l-119 160h91l67 -101l69 101h88z" />
    <glyph glyph-name="Scommaaccent" unicode="&#x218;" horiz-adv-x="665" 
d="M50 230l94 8q6 -84 60.5 -128.5t141.5 -44.5q77 0 122 35.5t45 93.5q0 75 -79 106q-21 8 -106.5 31t-102.5 28q-89 29 -118.5 70.5t-29.5 101.5q0 97 74 150.5t173 53.5q122 0 192 -55t77 -166l-96 -7q-14 148 -169 148q-64 0 -111.5 -30t-47.5 -88q0 -61 61 -83
q40 -16 208 -62q85 -24 131 -69.5t46 -123.5q0 -70 -40.5 -120t-99 -72t-125.5 -22q-137 0 -214.5 62t-85.5 183zM351 -200h-51v100h100v-100q0 -106 -82 -142l-24 38q57 24 57 104z" />
    <glyph glyph-name="scommaaccent" unicode="&#x219;" horiz-adv-x="493" 
d="M35 150l87 13q15 -103 129 -103q46 0 81.5 18t35.5 57q0 30 -16 47.5t-55 27.5l-127 34q-61 17 -95.5 47.5t-34.5 89.5q0 77 57 115.5t144 38.5q90 0 140.5 -40.5t56.5 -109.5l-86 -12q-12 87 -113 87q-55 0 -84 -18.5t-29 -50.5q0 -43 64 -60l140 -38q128 -35 128 -150
q0 -80 -61 -119t-149 -39q-95 0 -151 43t-62 122zM253 -200h-51v100h100v-100q0 -106 -82 -142l-24 38q57 24 57 104z" />
    <glyph glyph-name="afii10023" unicode="&#x401;" horiz-adv-x="657" 
d="M275 819h-90v101h90v-101zM475 819h-90v101h90v-101zM587 0h-507v720h497v-85h-402v-225h352v-85h-352v-240h412v-85z" />
    <glyph glyph-name="afii10051" unicode="&#x402;" horiz-adv-x="757" 
d="M485 -5l18 75q20 -6 36 -6q39 0 51 27.5t12 77.5v76q0 144 -107 144q-61 0 -99 -44t-39 -124v-221h-95v635h-242v85h579v-85h-242v-256q44 86 156 86q101 0 140 -56.5t39 -159.5v-82q0 -87 -31.5 -134.5t-110.5 -47.5q-28 0 -65 10z" />
    <glyph glyph-name="afii10052" unicode="&#x403;" horiz-adv-x="553" 
d="M80 720v-720h95v635h358v85h-453zM230 803l76 187h118l-123 -187h-71z" />
    <glyph glyph-name="afii10053" unicode="&#x404;" horiz-adv-x="734" 
d="M459 410v-85h-308q7 -118 65.5 -189t166.5 -71q78 0 129.5 44.5t74.5 123.5l97 -19q-25 -104 -103 -166.5t-198 -62.5q-159 0 -246 106t-87 269t87 269t246 106q121 0 199 -62t102 -168l-97 -19q-16 79 -67.5 124t-136.5 45q-98 0 -158.5 -67.5t-72.5 -177.5h307z" />
    <glyph glyph-name="afii10054" unicode="&#x405;" horiz-adv-x="675" 
d="M50 230l94 8q6 -84 62.5 -128.5t144.5 -44.5q80 0 126 32.5t46 96.5q0 73 -79 104q-22 9 -113 34t-106 30q-89 29 -118.5 69.5t-29.5 99.5q0 96 76 150t176 54q123 0 195 -55.5t79 -165.5l-96 -7q-7 70 -51 109t-123 39q-64 0 -114 -30t-50 -88t61 -80q59 -23 218 -67
q86 -24 131.5 -68.5t45.5 -122.5q0 -72 -42 -122t-101 -71t-127 -21q-138 0 -217.5 62t-87.5 183z" />
    <glyph glyph-name="uni0406" unicode="&#x406;" horiz-adv-x="255" 
d="M175 0h-95v720h95v-720z" />
    <glyph glyph-name="afii10056" unicode="&#x407;" horiz-adv-x="255" 
d="M175 0h-95v720h95v-720zM98 819h-90v101h90v-101zM248 819h-90v101h90v-101z" />
    <glyph glyph-name="afii10057" unicode="&#x408;" horiz-adv-x="516" 
d="M21 193l86 12q2 -61 30 -100.5t87 -39.5q117 0 117 158v497h95v-492q0 -118 -54.5 -180.5t-157.5 -62.5q-98 0 -151.5 55.5t-51.5 152.5z" />
    <glyph glyph-name="afii10058" unicode="&#x409;" horiz-adv-x="1068" 
d="M147 412v308h459v-290h143q269 0 269 -219q0 -211 -277 -211h-230v635h-269v-172q0 -25 0.5 -74.5t0.5 -76.5t-1 -71t-5 -69.5t-11 -59.5t-19 -53.5t-28.5 -38t-40 -27t-53.5 -8.5q-34 0 -70 15l-5 92q29 -17 53 -17q31 0 49.5 21t25.5 73t8 85t1 112v46zM606 345v-260
h143q39 0 67.5 5t53 18.5t37.5 40t13 65.5q0 131 -169 131h-145z" />
    <glyph glyph-name="afii10059" unicode="&#x40a;" horiz-adv-x="1064" 
d="M507 720h95v-290h143q269 0 269 -219q0 -211 -277 -211h-230v325h-332v-325h-95v720h95v-310h332v310zM602 345v-260h143q39 0 67.5 5t53 18.5t37.5 40t13 65.5q0 131 -169 131h-145z" />
    <glyph glyph-name="afii10060" unicode="&#x40b;" horiz-adv-x="757" 
d="M357 0h-95v635h-242v85h579v-85h-242v-256q44 86 156 86q101 0 140 -56.5t39 -159.5v-249h-90v245q0 144 -107 144q-61 0 -99 -44t-39 -124v-221z" />
    <glyph glyph-name="afii10061" unicode="&#x40c;" horiz-adv-x="670" 
d="M260 803l76 187h118l-123 -187h-71zM80 720h95v-360v-360h-95v720zM650 720l-348 -367l348 -353h-120l-355 353l355 367h120z" />
    <glyph glyph-name="afii10062" unicode="&#x40e;" horiz-adv-x="650" 
d="M438 920h70q0 -69 -45.5 -118t-130.5 -49q-84 0 -128 49t-44 118h70q9 -86 102 -86q97 0 106 86zM538 720h-2h105l-330 -720h-104l136 299h-108l-225 421h106l227 -421z" />
    <glyph glyph-name="afii10145" unicode="&#x40f;" horiz-adv-x="712" 
d="M537 720h95v-720h-228v-199h-95v199h-229v720h95v-635h362v635z" />
    <glyph glyph-name="afii10017" unicode="&#x410;" horiz-adv-x="675" 
d="M248 720h180l237 -720h-105l-60 175h-330l-61 -175h-99zM338 720l-143 -460h286z" />
    <glyph glyph-name="afii10018" unicode="&#x411;" horiz-adv-x="657" 
d="M80 720h483v-85h-388v-205h163q269 0 269 -219q0 -211 -277 -211h-250v720zM175 345v-260h163q39 0 67.5 5t53 18.5t37.5 40t13 65.5q0 131 -169 131h-165z" />
    <glyph glyph-name="afii10019" unicode="&#x412;" horiz-adv-x="674" 
d="M353 0h-273v720h259q115 0 183.5 -47t68.5 -140q0 -55 -27 -96.5t-83 -60.5q65 -16 104 -60.5t39 -107.5q0 -208 -271 -208zM175 635v-225h155q163 0 163 111q0 67 -46 90.5t-129 23.5h-143zM175 325v-240h178q81 0 125.5 27t44.5 96q0 117 -183 117h-165z" />
    <glyph glyph-name="afii10020" unicode="&#x413;" horiz-adv-x="553" 
d="M80 0v720h453v-85h-358v-635h-95z" />
    <glyph glyph-name="afii10021" unicode="&#x414;" horiz-adv-x="742" 
d="M162 512v208h464v-636h76v-84h-95h-502h-95v84h28q124 0 124 428zM531 84v551h-274v-72q0 -86 -2.5 -148.5t-11.5 -139.5t-30 -126t-54 -65h372z" />
    <glyph glyph-name="afii10022" unicode="&#x415;" horiz-adv-x="657" 
d="M587 0h-507v720h497v-85h-402v-225h352v-85h-352v-240h412v-85z" />
    <glyph glyph-name="afii10024" unicode="&#x416;" horiz-adv-x="1025" 
d="M339 353l-273 367h120l279 -366v366h95v-367l280 367h120l-273 -367l318 -353h-120l-325 353v-353h-95v352l-324 -352h-120z" />
    <glyph glyph-name="afii10025" unicode="&#x417;" horiz-adv-x="630" 
d="M255 325v85h75q56 0 89.5 33.5t33.5 85.5q0 58 -44 92t-101 34q-69 0 -108.5 -39t-50.5 -109l-89 17q14 97 80.5 154t168.5 57q101 0 169.5 -53.5t68.5 -148.5q0 -57 -28.5 -98t-76.5 -59q65 -12 101.5 -60t36.5 -111q0 -108 -77 -164t-187 -56q-108 0 -182.5 54
t-93.5 163l87 24q13 -77 63 -119t126 -42q31 0 58.5 6.5t53 22t40.5 44t15 68.5q0 119 -153 119h-75z" />
    <glyph glyph-name="afii10026" unicode="&#x418;" horiz-adv-x="722" 
d="M644 0h-91v720l-284 -720h-189v716v4h91v-4v-716l291 720h182v-720z" />
    <glyph glyph-name="afii10027" unicode="&#x419;" horiz-adv-x="722" 
d="M468 920h70q0 -69 -45.5 -118t-130.5 -49q-84 0 -128 49t-44 118h70q9 -86 102 -86q97 0 106 86zM644 0h-91v720l-284 -720h-189v716v4h91v-4v-716l291 720h182v-720z" />
    <glyph glyph-name="afii10028" unicode="&#x41a;" horiz-adv-x="670" 
d="M80 720h95v-360v-360h-95v720zM650 720l-348 -367l348 -353h-120l-355 353l355 367h120z" />
    <glyph glyph-name="afii10029" unicode="&#x41b;" horiz-adv-x="716" 
d="M16 -9l9 82q17 -6 29 -6q52 0 59 65l62 588h461v-720h-95v635h-282l-55 -503q-9 -79 -41.5 -113t-92.5 -34q-30 0 -54 6z" />
    <glyph glyph-name="afii10030" unicode="&#x41c;" horiz-adv-x="863" 
d="M175 720h105l153 -720l150 720h105l-163 -720h-186zM175 720v-720h-95l-1 720h96zM688 720h95v-720h-95v720z" />
    <glyph glyph-name="afii10031" unicode="&#x41d;" horiz-adv-x="722" 
d="M175 0h-95v720h95v-310h372v310h95v-720h-95v325h-372v-325z" />
    <glyph glyph-name="afii10032" unicode="&#x41e;" horiz-adv-x="785" 
d="M50 360q0 161 91.5 268t251.5 107q159 0 250.5 -107t91.5 -268t-91.5 -268t-250.5 -107q-160 0 -251.5 107t-91.5 268zM150 360q0 -130 63.5 -212.5t179.5 -82.5q110 0 176 83.5t66 211.5t-66 211.5t-176 83.5t-176.5 -83.5t-66.5 -211.5z" />
    <glyph glyph-name="afii10033" unicode="&#x41f;" horiz-adv-x="712" 
d="M175 0h-95v720h552v-720h-95v635h-362v-635z" />
    <glyph glyph-name="afii10034" unicode="&#x420;" horiz-adv-x="657" 
d="M175 0h-95v720h250q277 0 277 -211q0 -219 -269 -219h-163v-290zM175 635v-260h165q169 0 169 131q0 39 -13 65.5t-37.5 40t-53 18.5t-67.5 5h-163z" />
    <glyph glyph-name="afii10035" unicode="&#x421;" horiz-adv-x="734" 
d="M150 360q0 -132 59 -213.5t174 -81.5q78 0 129.5 44.5t74.5 123.5l97 -19q-25 -104 -103 -166.5t-198 -62.5q-159 0 -246 106t-87 269t87 269t246 106q121 0 199 -62t102 -168l-97 -19q-16 79 -67.5 124t-136.5 45q-109 0 -171 -83t-62 -212z" />
    <glyph glyph-name="afii10036" unicode="&#x422;" horiz-adv-x="619" 
d="M357 0h-95v635h-242v85h579v-85h-242v-635z" />
    <glyph glyph-name="afii10037" unicode="&#x423;" horiz-adv-x="650" 
d="M538 720h-2h105l-330 -720h-104l136 299h-108l-225 421h106l227 -421z" />
    <glyph glyph-name="afii10038" unicode="&#x424;" horiz-adv-x="821" 
d="M458 -15h-95v100q-148 2 -235.5 69t-87.5 206q0 138 87.5 205.5t235.5 69.5v100h95v-100q148 -2 235.5 -69.5t87.5 -205.5q0 -139 -87.5 -206t-235.5 -69v-100zM681 360q0 191 -223 195v-390q44 1 80.5 10.5t70.5 30t53 60t19 94.5zM140 360q0 -191 223 -195v390
q-44 -1 -81 -10.5t-70.5 -30.5t-52.5 -60t-19 -94z" />
    <glyph glyph-name="afii10039" unicode="&#x425;" horiz-adv-x="697" 
d="M134 0h-114l277 373l-244 347h113l187 -276l201 276h103l-251 -342l271 -378h-118l-211 303z" />
    <glyph glyph-name="afii10040" unicode="&#x426;" horiz-adv-x="738" 
d="M527 720h95v-625h79v-95h-98h-523v720h95v-624h352v624z" />
    <glyph glyph-name="afii10041" unicode="&#x427;" horiz-adv-x="656" 
d="M576 720v-720h-95v299q-95 -48 -203 -48q-131 0 -184.5 72.5t-53.5 211.5v185h95v-176q0 -108 31 -159.5t125 -51.5q104 0 190 45v342h95z" />
    <glyph glyph-name="afii10042" unicode="&#x428;" horiz-adv-x="929" 
d="M754 720h95v-720h-769v720h95v-635h242v635h95v-635h242v635z" />
    <glyph glyph-name="afii10043" unicode="&#x429;" horiz-adv-x="965" 
d="M849 720v-636h76v-84h-845v720h95v-635h242v635h95v-635h242v635h95z" />
    <glyph glyph-name="afii10044" unicode="&#x42a;" horiz-adv-x="747" 
d="M275 720v-290h153q269 0 269 -219q0 -211 -277 -211h-240v635h-160v85h255zM275 345v-260h153q39 0 67.5 5t53 18.5t37.5 40t13 65.5q0 131 -169 131h-155z" />
    <glyph glyph-name="afii10045" unicode="&#x42b;" horiz-adv-x="885" 
d="M805 0h-95v720h95v-720zM80 720h95v-290h163q269 0 269 -219q0 -211 -277 -211h-250v720zM175 345v-260h163q39 0 67.5 5t53 18.5t37.5 40t13 65.5q0 131 -169 131h-165z" />
    <glyph glyph-name="afii10046" unicode="&#x42c;" horiz-adv-x="657" 
d="M80 720h95v-290h163q269 0 269 -219q0 -211 -277 -211h-250v720zM175 345v-260h163q39 0 67.5 5t53 18.5t37.5 40t13 65.5q0 131 -169 131h-165z" />
    <glyph glyph-name="afii10047" unicode="&#x42d;" horiz-adv-x="734" 
d="M275 325v85h307q-11 111 -67.5 178t-153.5 67q-86 0 -139.5 -45.5t-69.5 -123.5l-97 19q24 106 104.5 168t201.5 62q158 0 240.5 -105.5t82.5 -269.5q0 -163 -87 -269t-246 -106q-120 0 -198 62.5t-103 166.5l97 19q23 -79 74.5 -123.5t129.5 -44.5q107 0 165.5 71
t66.5 189h-308z" />
    <glyph glyph-name="afii10048" unicode="&#x42e;" horiz-adv-x="1025" 
d="M175 0h-95v720h95v-310h147q14 143 100 234t226 91q152 0 239.5 -107t87.5 -268t-87.5 -268t-239.5 -107q-144 0 -230.5 95.5t-96.5 244.5h-146v-325zM420 360q0 -130 59.5 -212.5t168.5 -82.5q102 0 164.5 83.5t62.5 211.5t-62.5 211.5t-164.5 83.5q-103 0 -165.5 -83.5
t-62.5 -211.5z" />
    <glyph glyph-name="afii10049" unicode="&#x42f;" horiz-adv-x="687" 
d="M376 300l-243 -300h-113l255 314h-1l-2 1q-182 32 -182 194q0 58 22.5 100t62 65.5t87.5 34.5t105 11h240v-720h-95v300h-93h-43zM512 375v260h-153q-171 0 -171 -129q0 -131 169 -131h155z" />
    <glyph glyph-name="afii10065" unicode="&#x430;" horiz-adv-x="544" 
d="M387 64q-71 -79 -175 -79q-77 0 -127 38.5t-50 113.5q0 149 204 168q104 9 142 27v20q0 111 -120 111q-97 0 -125 -104l-85 19q34 157 219 157q201 0 201 -201v-228q0 -76 28 -106h-91q-15 14 -21 64zM381 140v123q-29 -14 -132 -30q-27 -4 -43 -8.5t-36.5 -14t-30.5 -27
t-10 -42.5q0 -84 97 -84q46 0 88.5 26t66.5 57z" />
    <glyph glyph-name="afii10066" unicode="&#x431;" horiz-adv-x="558" 
d="M496 730l-10 -89q-14 -15 -70 -20l-128 -10q-46 -4 -79.5 -23t-51.5 -48t-26.5 -56t-11.5 -58q55 94 181 94q102 0 162.5 -70t60.5 -193q0 -125 -67.5 -198.5t-175.5 -73.5q-112 0 -178.5 76t-66.5 239q0 375 242 396l149 13q53 6 70 21zM127 253q0 -99 44 -146t109 -47
t109 47t44 146t-44 145.5t-109 46.5q-59 0 -106 -47.5t-47 -144.5z" />
    <glyph glyph-name="afii10067" unicode="&#x432;" horiz-adv-x="520" 
d="M65 0v520h194q202 0 202 -139q0 -72 -64 -111q39 -11 64 -48t23 -77q-7 -145 -194 -145h-225zM155 445v-145h83q27 0 45.5 2t40.5 8.5t33.5 22.5t11.5 40q0 20 -7.5 34t-18.5 21.5t-30 11t-33.5 4.5t-38.5 1h-86zM155 225v-150h105q25 0 40 0.5t34.5 4.5t30 11.5t18.5 22
t9 35.5q0 21 -7 35.5t-17 22.5t-30 12t-38 5t-49 1h-96z" />
    <glyph glyph-name="afii10068" unicode="&#x433;" horiz-adv-x="421" 
d="M65 0v520h336v-75h-248v-445h-88z" />
    <glyph glyph-name="afii10069" unicode="&#x434;" horiz-adv-x="583" 
d="M133 380v140h366v-445h69v-75h-85h-383h-85v75h19q18 0 32.5 8.5t24.5 26.5t17.5 36.5t12 46.5t7 49t4 51.5t1.5 46v40.5zM152 75h257v370h-186v-85q0 -228 -71 -285z" />
    <glyph glyph-name="afii10070" unicode="&#x435;" horiz-adv-x="544" 
d="M508 237h-383q6 -88 49 -132.5t104 -44.5q48 0 87 30t52 86l85 -18q-22 -85 -82 -129t-147 -44q-109 0 -173.5 73.5t-64.5 201.5t64.5 201.5t173.5 73.5q114 0 175 -73.5t61 -191.5q0 -26 -1 -33zM273 460q-51 0 -92.5 -38t-52.5 -113h285q-3 67 -40.5 109t-99.5 42z" />
    <glyph glyph-name="afii10072" unicode="&#x436;" horiz-adv-x="722" 
d="M316 520h90v-260v-260h-90v520zM681 520l-175 -265l196 -255h-106l-191 255l170 265h106zM216 255l-186 265h106l181 -265l-191 -255h-106z" />
    <glyph glyph-name="afii10073" unicode="&#x437;" horiz-adv-x="479" 
d="M192 235v68q13 0 31 0.5t27.5 1t12.5 0.5q32 5 51.5 24.5t19.5 50.5q0 37 -26 60t-70 23t-73 -28t-36 -74l-80 23q14 72 64.5 111.5t125.5 39.5q82 0 133.5 -40t51.5 -113q0 -80 -73 -107q42 -11 67.5 -46t25.5 -84q0 -77 -58 -118.5t-140 -41.5q-89 0 -143 41t-68 120
l83 18q25 -107 129 -107q49 0 79 24.5t30 66.5q0 87 -114 87h-50z" />
    <glyph glyph-name="afii10074" unicode="&#x438;" horiz-adv-x="560" 
d="M65 0v520h90v-520l166 520h174v-520h-90v520l-166 -520h-174z" />
    <glyph glyph-name="afii10075" unicode="&#x439;" horiz-adv-x="560" 
d="M371 720h60q0 -67 -37 -107t-109 -40t-107 40t-35 107h60q8 -76 82 -76q37 0 59.5 19.5t26.5 56.5zM65 0v520h90v-520l166 520h174v-520h-90v520l-166 -520h-174z" />
    <glyph glyph-name="afii10076" unicode="&#x43a;" horiz-adv-x="516" 
d="M65 520h90v-520h-90v520zM472 520l-211 -261l211 -259h-100l-216 259l216 261h100z" />
    <glyph glyph-name="afii10077" unicode="&#x43b;" horiz-adv-x="570" 
d="M505 520v-520h-90v445h-193l-42 -361q-4 -45 -29 -68t-64 -23q-23 0 -51 7l10 70q13 -5 23 -5q16 0 22.5 9t8.5 28l47 418h358z" />
    <glyph glyph-name="afii10078" unicode="&#x43c;" horiz-adv-x="687" 
d="M65 0v520h180l98 -520l106 520h173v-520h-90v520l-106 -520h-168l-103 520v-520h-90z" />
    <glyph glyph-name="afii10079" unicode="&#x43d;" horiz-adv-x="555" 
d="M65 0v520h90v-220h245v220h90v-520h-90v225h-245v-225h-90z" />
    <glyph glyph-name="afii10080" unicode="&#x43e;" 
d="M35 260q0 127 67 201t176 74t176 -74t67 -201t-67 -201t-176 -74t-176 74t-67 201zM125 260q0 -100 44 -150t109 -50t109 50t44 150t-44 150t-109 50t-109 -50t-44 -150z" />
    <glyph glyph-name="afii10081" unicode="&#x43f;" horiz-adv-x="550" 
d="M65 0v520h420v-520h-90v445h-240v-445h-90z" />
    <glyph glyph-name="afii10082" unicode="&#x440;" horiz-adv-x="550" 
d="M155 -200h-90v720h80v-71q52 86 147 86q106 0 164.5 -75.5t58.5 -199.5t-58.5 -199.5t-164.5 -75.5q-87 0 -137 70v-255zM144 260q0 -95 40.5 -147.5t102.5 -52.5t100 52t38 148t-38 148t-100 52q-56 0 -99.5 -53.5t-43.5 -146.5z" />
    <glyph glyph-name="afii10083" unicode="&#x441;" horiz-adv-x="524" 
d="M125 260q0 -100 42 -150t106 -50q102 0 129 117l87 -20q-21 -82 -77 -127t-139 -45q-109 0 -173.5 73.5t-64.5 201.5t64.5 201.5t173.5 73.5q83 0 139 -45.5t77 -127.5l-87 -20q-27 118 -129 118q-64 0 -106 -50t-42 -150z" />
    <glyph glyph-name="afii10084" unicode="&#x442;" horiz-adv-x="464" 
d="M20 445v75h424v-75h-167v-446h-90v446h-167z" />
    <glyph glyph-name="afii10085" unicode="&#x443;" horiz-adv-x="500" 
d="M394 520h93l-211 -733h-97zM251 0h-94l-153 520h93z" />
    <glyph glyph-name="afii10086" unicode="&#x444;" horiz-adv-x="820" 
d="M454 260q0 -98 30.5 -149t87.5 -51q58 0 90.5 51.5t32.5 148.5t-32.5 148.5t-90.5 51.5q-52 0 -85 -52t-33 -148zM366 260q0 96 -33 148t-85 52q-58 0 -90.5 -51.5t-32.5 -148.5t32.5 -148.5t90.5 -51.5q57 0 87.5 51t30.5 149zM455 -200h-90v255q-16 -29 -50.5 -49.5
t-78.5 -20.5q-99 0 -150 77t-51 198q0 122 50 198.5t153 76.5q47 0 80.5 -23.5t46.5 -52.5v236l90 40v-276q13 29 46.5 52.5t80.5 23.5q103 0 153 -76.5t50 -198.5q0 -121 -51 -198t-150 -77q-44 0 -78.5 20.5t-50.5 49.5v-255z" />
    <glyph glyph-name="afii10087" unicode="&#x445;" horiz-adv-x="517" 
d="M124 0h-104l185 266l-173 254h108l120 -188l121 188h102l-176 -251l190 -269h-106l-134 200z" />
    <glyph glyph-name="afii10088" unicode="&#x446;" horiz-adv-x="569" 
d="M65 0v520h90v-445h240v445h90v-445h69v-75h-489z" />
    <glyph glyph-name="afii10089" unicode="&#x447;" horiz-adv-x="510" 
d="M40 373v147h90v-110q0 -84 22.5 -123.5t93.5 -39.5q52 0 109 37v236h90v-520h-90v219q-54 -45 -133 -45q-93 0 -137.5 52.5t-44.5 146.5z" />
    <glyph glyph-name="afii10090" unicode="&#x448;" horiz-adv-x="766" 
d="M65 0v520h90v-445h183v445h90v-445h183v445h90v-520h-636z" />
    <glyph glyph-name="afii10091" unicode="&#x449;" horiz-adv-x="785" 
d="M701 520v-445h69v-75h-705v520h90v-445h183v445h90v-445h183v445h90z" />
    <glyph glyph-name="afii10092" unicode="&#x44a;" horiz-adv-x="578" 
d="M20 447v73h214v-205h102q212 0 212 -158q0 -54 -28.5 -91t-68 -51.5t-85.5 -14.5h-222v447h-124zM234 243v-171h103q119 0 119 85q0 86 -110 86h-112z" />
    <glyph glyph-name="afii10093" unicode="&#x44b;" horiz-adv-x="695" 
d="M540 0v520h90v-520h-90zM65 0v520h90v-205h102q212 0 212 -158q0 -54 -28.5 -91t-68 -51.5t-85.5 -14.5h-222zM155 243v-171h103q119 0 119 85q0 86 -110 86h-112z" />
    <glyph glyph-name="afii10094" unicode="&#x44c;" horiz-adv-x="499" 
d="M65 0v520h90v-205h102q212 0 212 -158q0 -54 -28.5 -91t-68 -51.5t-85.5 -14.5h-222zM155 243v-171h103q119 0 119 85q0 86 -110 86h-112z" />
    <glyph glyph-name="afii10095" unicode="&#x44d;" horiz-adv-x="524" 
d="M205 225v75h192q-8 80 -46.5 120t-89.5 40q-107 0 -134 -118l-87 20q21 83 77.5 128t143.5 45q108 0 168 -73t60 -202q0 -128 -64.5 -201.5t-173.5 -73.5q-83 0 -139 45t-77 127l87 20q27 -117 129 -117q58 0 98.5 41t47.5 124h-192z" />
    <glyph glyph-name="afii10096" unicode="&#x44e;" horiz-adv-x="761" 
d="M65 0v520h90v-220h106q10 110 73 172.5t159 62.5q104 0 168.5 -74t64.5 -201t-64.5 -201t-168.5 -74q-97 0 -160 64t-72 176h-106v-225h-90zM350 260q0 -100 41 -150t102 -50t102 50t41 150t-41 150t-102 50t-102 -50t-41 -150z" />
    <glyph glyph-name="afii10097" unicode="&#x44f;" horiz-adv-x="534" 
d="M248 520h221v-520h-90v201h-41q-57 0 -87 -20.5t-57 -67.5l-65 -113h-109l73 124q52 87 105 95q-66 6 -102.5 43.5t-36.5 102.5q0 76 52 115.5t137 39.5zM379 274v171h-113q-113 0 -113 -83q0 -52 36.5 -70t102.5 -18h87z" />
    <glyph glyph-name="afii10071" unicode="&#x451;" horiz-adv-x="544" 
d="M219 620h-91v100h91v-100zM419 620h-91v100h91v-100zM508 237h-383q6 -88 49 -132.5t104 -44.5q48 0 87 30t52 86l85 -18q-22 -85 -82 -129t-147 -44q-109 0 -173.5 73.5t-64.5 201.5t64.5 201.5t173.5 73.5q114 0 175 -73.5t61 -191.5q0 -26 -1 -33zM273 460
q-51 0 -92.5 -38t-52.5 -113h285q-3 67 -40.5 109t-99.5 42z" />
    <glyph glyph-name="afii10099" unicode="&#x452;" horiz-adv-x="584" 
d="M312 -5l18 75q20 -6 36 -6q39 0 51 27.5t12 77.5v76q0 144 -107 144q-61 0 -99 -44t-39 -124v-221h-90v520h-74v69h74v103l90 43v-146h89v-69h-89v-141q44 86 156 86q101 0 140 -56.5t39 -159.5v-82q0 -87 -31.5 -134.5t-110.5 -47.5q-28 0 -65 10z" />
    <glyph glyph-name="afii10100" unicode="&#x453;" horiz-adv-x="421" 
d="M65 520v-520h88v445h248v75h-336zM160 603l76 187h118l-123 -187h-71z" />
    <glyph glyph-name="afii10101" unicode="&#x454;" horiz-adv-x="524" 
d="M319 300v-75h-193q8 -83 48.5 -124t98.5 -41q102 0 129 117l87 -20q-21 -82 -77 -127t-139 -45q-109 0 -173.5 73.5t-64.5 201.5t64.5 201.5t173.5 73.5q83 0 139 -45.5t77 -127.5l-87 -20q-27 118 -129 118q-57 0 -97 -40t-49 -120h192z" />
    <glyph glyph-name="afii10102" unicode="&#x455;" horiz-adv-x="493" 
d="M35 150l87 13q15 -103 129 -103q46 0 81.5 18t35.5 57q0 30 -16 47.5t-55 27.5l-127 34q-61 17 -95.5 47.5t-34.5 89.5q0 77 57 115.5t144 38.5q90 0 140.5 -40.5t56.5 -109.5l-86 -12q-12 87 -113 87q-55 0 -84 -18.5t-29 -50.5q0 -43 64 -60l140 -38q128 -35 128 -150
q0 -80 -61 -119t-149 -39q-95 0 -151 43t-62 122z" />
    <glyph glyph-name="afii10103" unicode="&#x456;" horiz-adv-x="220" 
d="M155 619h-90v101h90v-101zM155 0h-90v520h90v-520z" />
    <glyph glyph-name="afii10104" unicode="&#x457;" horiz-adv-x="220" 
d="M83 619h-90v101h90v-101zM155 0h-90v520h90v-520zM227 619h-90v101h90v-101z" />
    <glyph glyph-name="afii10105" unicode="&#x458;" horiz-adv-x="220" 
d="M-52 -200l18 75q20 -6 36 -6q39 0 51 27.5t12 77.5v546h90v-548q0 -87 -31.5 -134.5t-110.5 -47.5q-28 0 -65 10zM155 619h-90v101h90v-101z" />
    <glyph glyph-name="afii10106" unicode="&#x459;" horiz-adv-x="809" 
d="M129 307v213h356v-205h92q212 0 212 -158q0 -54 -28.5 -91t-68 -51.5t-85.5 -14.5h-212v445h-176v-158q0 -38 -0.5 -58.5t-3 -57.5t-7 -58.5t-14.5 -49t-23.5 -42.5t-35 -25.5t-49.5 -10.5q-34 0 -61 15v79q20 -11 39 -11q16 0 27.5 9t18.5 29t11 38t5.5 50t2 48.5
t0.5 49.5v15zM485 243v-171h93q119 0 119 85q0 86 -110 86h-102z" />
    <glyph glyph-name="afii10107" unicode="&#x45a;" horiz-adv-x="804" 
d="M65 0v520h90v-220h225v220h90v-205h92q212 0 212 -158q0 -54 -28.5 -91t-68 -51.5t-85.5 -14.5h-212v225h-225v-225h-90zM470 243v-171h93q119 0 119 85q0 86 -110 86h-102z" />
    <glyph glyph-name="afii10108" unicode="&#x45b;" horiz-adv-x="584" 
d="M184 0h-90v520h-74v69h74v103l90 43v-146h89v-69h-89v-141q44 86 156 86q101 0 140 -56.5t39 -159.5v-249h-90v245q0 144 -107 144q-61 0 -99 -44t-39 -124v-221z" />
    <glyph glyph-name="afii10109" unicode="&#x45c;" horiz-adv-x="516" 
d="M200 603l76 187h118l-123 -187h-71zM65 520h90v-520h-90v520zM462 520l-201 -261l201 -259h-100l-206 259l206 261h100z" />
    <glyph glyph-name="afii10110" unicode="&#x45e;" horiz-adv-x="500" 
d="M342 720h60q0 -67 -37 -107t-109 -40t-107 40t-35 107h60q8 -76 82 -76q37 0 59.5 19.5t26.5 56.5zM403 520h84l-211 -733h-88zM251 0h-85l-153 520h84z" />
    <glyph glyph-name="afii10193" unicode="&#x45f;" horiz-adv-x="550" 
d="M485 520v-520h-162v-147h-85v147h-173v520h90v-445h240v445h90z" />
    <glyph glyph-name="afii10050" unicode="&#x490;" horiz-adv-x="553" 
d="M80 0v720h358v130h95v-215h-358v-635h-95z" />
    <glyph glyph-name="afii10098" unicode="&#x491;" horiz-adv-x="421" 
d="M65 0v520h258v110h78v-185h-248v-445h-88z" />
    <glyph glyph-name="endash" unicode="&#x2013;" 
d="M516 225h-476v75h476v-75z" />
    <glyph glyph-name="emdash" unicode="&#x2014;" horiz-adv-x="700" 
d="M700 225h-700v75h700v-75z" />
    <glyph glyph-name="quoteleft" unicode="&#x2018;" horiz-adv-x="246" 
d="M119 593h51v-100h-100v100q0 106 82 142l24 -38q-57 -24 -57 -104z" />
    <glyph glyph-name="quoteright" unicode="&#x2019;" horiz-adv-x="246" 
d="M127 620h-51v100h100v-100q0 -106 -82 -142l-24 38q57 24 57 104z" />
    <glyph glyph-name="quotesinglbase" unicode="&#x201a;" horiz-adv-x="246" 
d="M127 0h-51v100h100v-100q0 -106 -82 -142l-24 38q57 24 57 104z" />
    <glyph glyph-name="quotedblleft" unicode="&#x201c;" horiz-adv-x="396" 
d="M269 593h51v-100h-100v100q0 106 82 142l24 -38q-57 -24 -57 -104zM119 593h51v-100h-100v100q0 106 82 142l24 -38q-57 -24 -57 -104z" />
    <glyph glyph-name="quotedblright" unicode="&#x201d;" horiz-adv-x="396" 
d="M127 620h-51v100h100v-100q0 -106 -82 -142l-24 38q57 24 57 104zM277 620h-51v100h100v-100q0 -106 -82 -142l-24 38q57 24 57 104z" />
    <glyph glyph-name="quotedblbase" unicode="&#x201e;" horiz-adv-x="396" 
d="M127 0h-51v100h100v-100q0 -106 -82 -142l-24 38q57 24 57 104zM277 0h-51v100h100v-100q0 -106 -82 -142l-24 38q57 24 57 104z" />
    <glyph glyph-name="dagger" unicode="&#x2020;" horiz-adv-x="364" 
d="M40 535v75h97v110h90v-110h97v-75h-97v-235h-90v235h-97z" />
    <glyph glyph-name="daggerdbl" unicode="&#x2021;" horiz-adv-x="364" 
d="M324 475v-75h-97v-100h-90v100h-97v75h97v70h-97v75h97v100h90v-100h97v-75h-97v-70h97z" />
    <glyph glyph-name="bullet" unicode="&#x2022;" horiz-adv-x="388" 
d="M70 351q0 51 36.5 87t87.5 36t87.5 -36t36.5 -87q0 -52 -36 -88t-88 -36t-88 36t-36 88z" />
    <glyph glyph-name="ellipsis" unicode="&#x2026;" horiz-adv-x="571" 
d="M161 0h-91v100h91v-100zM331 0h-91v100h91v-100zM501 0h-91v100h91v-100z" />
    <glyph glyph-name="perthousand" unicode="&#x2030;" horiz-adv-x="1112" 
d="M148 0h89l387 720h-90zM40 560q0 76 40.5 120.5t105.5 44.5t105.5 -44.5t40.5 -120.5t-40.5 -120.5t-105.5 -44.5t-105.5 44.5t-40.5 120.5zM117 560q0 -45 20 -67.5t49 -22.5t49 22.5t20 67.5t-20 67.5t-49 22.5q-27 0 -48 -23t-21 -67zM440 160q0 76 40.5 120.5
t105.5 44.5t105.5 -44.5t40.5 -120.5t-40.5 -120.5t-105.5 -44.5t-105.5 44.5t-40.5 120.5zM517 160q0 -45 20 -67.5t49 -22.5t49 22.5t20 67.5t-20 67.5t-49 22.5q-27 0 -48 -23t-21 -67zM780 160q0 76 40.5 120.5t105.5 44.5t105.5 -44.5t40.5 -120.5t-40.5 -120.5
t-105.5 -44.5t-105.5 44.5t-40.5 120.5zM857 160q0 -45 20 -67.5t49 -22.5t49 22.5t20 67.5t-20 67.5t-49 22.5q-27 0 -48 -23t-21 -67z" />
    <glyph glyph-name="guilsinglleft" unicode="&#x2039;" horiz-adv-x="301" 
d="M40 263l135 169h86l-134 -169l134 -169h-86z" />
    <glyph glyph-name="guilsinglright" unicode="&#x203a;" horiz-adv-x="301" 
d="M126 432l135 -169l-135 -169h-86l134 169l-134 169h86z" />
    <glyph glyph-name="Euro" unicode="&#x20ac;" 
d="M346 395h-155v-65h155v-75h-152q7 -93 35.5 -142.5t88.5 -49.5q55 0 81 42.5t38 125.5l92 -18q-21 -111 -70.5 -169.5t-140.5 -58.5q-191 0 -218 270h-100v75h95v65h-95v75h100q30 265 218 265q91 0 141 -59.5t70 -170.5l-92 -19q-12 85 -38 128t-81 43
q-59 0 -87.5 -48.5t-35.5 -138.5h151v-75z" />
    <glyph glyph-name="afii61352" unicode="&#x2116;" horiz-adv-x="1034" 
d="M712 460q0 76 40.5 120.5t105.5 44.5t105.5 -44.5t40.5 -120.5t-40.5 -120.5t-105.5 -44.5t-105.5 44.5t-40.5 120.5zM789 460q0 -45 20 -67.5t49 -22.5t49 22.5t20 67.5t-20 67.5t-49 22.5q-27 0 -48 -23t-21 -67zM1004 165h-292v75h292v-75zM171 0h-91v720h182
l291 -720v716v4h91v-4v-716h-189l-284 720v-720z" />
    <glyph glyph-name="trademark" unicode="&#x2122;" horiz-adv-x="642" 
d="M349 432h-68v224h-87v-224h-68v224h-96v64h357l60 -199l63 199h102v-288h-68v209l-65 -209h-64l-66 209v-209z" />
    <glyph glyph-name="CR" horiz-adv-x="278" 
 />
    <glyph glyph-name=".grave" horiz-adv-x="500" 
d="M4225 260q0 -100 42 -150t106 -50q102 0 129 117l87 -19q-21 -83 -76.5 -128t-139.5 -45q-109 0 -173.5 73.5t-64.5 201.5t64.5 201.5t173.5 73.5q83 0 139 -45.5t77 -127.5l-87 -20q-27 118 -129 118q-59 0 -103.5 -50.5t-44.5 -149.5zM4511 260q0 48 -9 82l-55 -12
v-140l55 -13q9 36 9 83zM4625 150v220l-36 -8q12 -53 12 -102q0 -51 -12 -102z" />
    <glyph glyph-name="percent" horiz-adv-x="772" 
d="M148 0h89l387 720h-90zM40 560q0 76 40.5 120.5t105.5 44.5t105.5 -44.5t40.5 -120.5t-40.5 -120.5t-105.5 -44.5t-105.5 44.5t-40.5 120.5zM117 560q0 -45 20 -67.5t49 -22.5t49 22.5t20 67.5t-20 67.5t-49 22.5q-27 0 -48 -23t-21 -67zM440 160q0 76 40.5 120.5
t105.5 44.5t105.5 -44.5t40.5 -120.5t-40.5 -120.5t-105.5 -44.5t-105.5 44.5t-40.5 120.5zM517 160q0 -45 20 -67.5t49 -22.5t49 22.5t20 67.5t-20 67.5t-49 22.5q-27 0 -48 -23t-21 -67z" />
    </font>
</defs>
</svg>
