<svg width="88" height="83" viewBox="0 0 88 83" fill="none" xmlns="http://www.w3.org/2000/svg">
  <g clipPath="url(#clip0)">
    <path fillRule="evenodd" clipRule="evenodd" d="M88 31.834C87.9558 25.704 85.3244 20.6918 79.8332 17.7547L79.3098 17.4698L79.1771 16.8852C78.7275 14.9698 77.8908 13.1645 76.7177 11.5785C75.5446 9.99249 74.0594 8.65858 72.3518 7.65734C67.0301 4.42063 60.2784 4.06993 54.367 5.72847L53.6963 5.91843L53.1582 5.47275C46.3181 -0.196972 36.0285 -1.19794 27.6995 1.2643C19.7169 3.65347 13.4001 9.06016 11.1447 17.1264L10.9899 17.6524L10.5034 17.9227C4.42248 21.2325 0 26.7707 0 33.8286C0 34.362 0 34.8954 0.073708 35.4214C0.73708 42.4282 5.52073 48.0979 11.9628 50.8013L13.2232 51.3273L12.6409 52.5621C10.7049 56.7121 8.76143 60.8524 6.81062 64.9829C6.73919 65.1258 6.70378 65.2837 6.70743 65.4432C6.71052 65.6551 6.77167 65.8622 6.88433 66.0423C6.98589 66.1967 7.12463 66.3237 7.28806 66.4117C7.45148 66.4997 7.63444 66.546 7.82042 66.5464H10.8867L9.7958 68.5337L2.60189 81.3564C2.50631 81.5182 2.45546 81.7022 2.45448 81.8897C2.45586 82.1084 2.52232 82.3217 2.64552 82.5031C2.76872 82.6844 2.94318 82.8257 3.14703 82.9092C3.35089 82.9927 3.57506 83.0146 3.79146 82.9724C4.00786 82.9301 4.20686 82.8254 4.36351 82.6715L25.9305 61.2932C26.0889 61.1397 26.1976 60.9429 26.2425 60.7278C26.2874 60.5128 26.2666 60.2894 26.1827 60.0862C26.0988 59.883 25.9556 59.7092 25.7715 59.5871C25.5874 59.465 25.3707 59.4001 25.1492 59.4008H21.0436L23.0632 57.2089C23.9256 56.2591 24.7954 55.3166 25.6578 54.3741L26.1663 53.8261L26.9034 53.9649C33.5243 55.1856 40.3066 55.2794 46.9594 54.2425C51.6767 53.5119 56.5414 52.0068 60.5585 49.3327L61.0081 49.0331L61.5388 49.1354C64.6138 49.6467 67.7514 49.6689 70.8334 49.2012C74.5171 48.7431 78.0332 47.4041 81.0788 45.2996C85.5897 42.0044 87.6536 37.2626 88.0221 31.8267L88 31.834Z" fill="#231F20"/>
    <path fillRule="evenodd" clipRule="evenodd" d="M18.4861 18.1636C18.0922 18.277 17.7523 18.5266 17.5278 18.867C17.3034 19.2074 17.2093 19.6162 17.2626 20.0194C17.3093 20.2454 17.4051 20.4587 17.5432 20.6445C17.6813 20.8302 17.8585 20.984 18.0625 21.0952C18.2665 21.2064 18.4924 21.2723 18.7247 21.2884C18.9569 21.3045 19.1899 21.2704 19.4075 21.1884L21.2133 20.56L17.6901 32.221C17.4174 33.1123 18.2061 33.9379 19.1127 34.2229C19.3356 34.3127 19.5754 34.3539 19.8159 34.3438C20.0563 34.3338 20.2918 34.2727 20.5063 34.1646C20.7209 34.0565 20.9095 33.904 21.0595 33.7175C21.2094 33.5309 21.3172 33.3145 21.3755 33.0831C22.4738 29.2911 24.7882 20.94 25.4 18.5946C25.4941 18.2964 25.511 17.9795 25.4492 17.673C25.3873 17.3666 25.2488 17.0805 25.0462 16.8411C24.818 16.6377 24.5375 16.5007 24.2358 16.4453C23.934 16.3898 23.6227 16.4181 23.3361 16.5269L18.4861 18.1636Z" fill="white"/>
    <path fillRule="evenodd" clipRule="evenodd" d="M56.2911 18.1635C55.8958 18.2756 55.5542 18.5245 55.3283 18.8651C55.1024 19.2056 55.0073 19.6152 55.0602 20.0193C55.1069 20.2454 55.2027 20.4587 55.3408 20.6445C55.4789 20.8302 55.6561 20.984 55.8601 21.0952C56.0641 21.2064 56.29 21.2723 56.5223 21.2884C56.7545 21.3045 56.9875 21.2703 57.2051 21.1884L59.0109 20.56L55.4508 32.2502C55.1855 33.1415 55.9594 33.9671 56.8734 34.2521C57.0983 34.3483 57.3417 34.3946 57.5865 34.3877C57.8313 34.3809 58.0717 34.3211 58.2908 34.2125C58.5098 34.104 58.7023 33.9492 58.8547 33.7592C59.0071 33.5691 59.1158 33.3483 59.1731 33.1123C60.2713 29.3203 62.5858 20.9692 63.1976 18.6238C63.293 18.3257 63.3107 18.0085 63.2488 17.7018C63.1869 17.3952 63.0476 17.1091 62.8438 16.8703C62.616 16.6662 62.3355 16.5287 62.0336 16.4732C61.7317 16.4177 61.4202 16.4464 61.1337 16.5561L56.2911 18.1928V18.1635Z" fill="white"/>
    <path fillRule="evenodd" clipRule="evenodd" d="M32.9111 27.0334C31.8424 29.2253 30.8842 30.1386 29.8744 30.0217C29.2626 29.9414 28.9825 29.0354 28.9456 28.5605C28.7466 24.6224 30.9579 21.0349 32.432 20.3481C32.7785 20.1874 32.9775 20.129 33.2355 20.2824C34.2674 20.8596 34.0168 24.8123 32.9406 27.0261L32.9111 27.0334ZM35.5941 16.8996C35.2256 16.8996 35.0855 17.0311 34.5769 17.5864L34.2747 17.9224L34.1494 17.4987C34.0941 17.2766 33.9804 17.073 33.8198 16.9087C33.6593 16.7444 33.4576 16.6253 33.2355 16.5635C32.659 16.4156 32.047 16.4996 31.5328 16.7973C29.469 17.7106 26.9113 20.0924 25.6362 25.1849C24.818 28.3997 25.1276 33.6749 28.695 34.179C31.378 34.5663 35.7784 31.841 37.1862 25.09C38.2329 20.0632 36.6555 17.864 36.6334 17.8202C36.3828 17.411 36.0437 16.9288 35.6015 16.8996H35.5941Z" fill="white"/>
    <path fillRule="evenodd" clipRule="evenodd" d="M46.1267 27.0335C45.0506 29.2254 44.0924 30.1387 43.0826 30.0218C42.4708 29.9414 42.1907 29.0354 42.1539 28.5605C41.918 24.6662 44.1808 21.0788 45.6108 20.392C45.9498 20.2313 46.1562 20.1728 46.4142 20.3263C47.4387 20.9035 47.1955 24.8562 46.1267 27.07V27.0335ZM48.8023 16.8996C48.4412 16.8996 48.3011 17.0311 47.7852 17.5864L47.483 17.9225L47.3576 17.4987C47.3029 17.2744 47.1886 17.0687 47.0266 16.903C46.8645 16.7373 46.6607 16.6175 46.4363 16.5562C45.8602 16.4147 45.2511 16.5039 44.741 16.8046C42.6772 17.7179 40.1195 20.0998 38.8444 25.1923C38.0336 28.4071 38.3432 33.6823 41.9106 34.1864C44.5936 34.5736 48.994 31.8484 50.4018 25.0973C51.4484 20.0705 49.8711 17.8713 49.849 17.8275C49.5984 17.4183 49.2593 16.9361 48.8171 16.9069L48.8023 16.8996Z" fill="white"/>
    <path fillRule="evenodd" clipRule="evenodd" d="M66.5069 28.8308C67.4282 28.8308 67.5093 28.4217 67.6051 27.9687C67.63 27.8711 67.6342 27.7695 67.6175 27.6702C67.6009 27.5709 67.5637 27.4761 67.5083 27.3917C67.453 27.3073 67.3806 27.2352 67.2958 27.1798C67.211 27.1245 67.1156 27.0871 67.0155 27.07H63.9566C62.9247 27.1138 62.7257 28.8016 63.3669 28.8308C63.2711 29.1742 62.2097 33.0612 62.1581 33.2658C62.1281 33.3694 62.119 33.4779 62.1313 33.585C62.1436 33.6921 62.177 33.7958 62.2297 33.8901C62.2824 33.9844 62.3533 34.0675 62.4384 34.1346C62.5235 34.2018 62.6211 34.2516 62.7257 34.2814C62.8302 34.3111 62.9396 34.3201 63.0477 34.308C63.1558 34.2958 63.2604 34.2626 63.3555 34.2104C63.4506 34.1582 63.5345 34.0879 63.6022 34.0035C63.6699 33.9191 63.7202 33.8224 63.7502 33.7188C63.9197 33.2 64.1409 32.4621 64.362 31.6803H65.733C66.6469 31.6803 66.7428 31.2712 66.8312 30.8255C66.8528 30.7371 66.8535 30.6449 66.8333 30.5562C66.8131 30.4675 66.7726 30.3846 66.7148 30.3139C66.6571 30.2432 66.5837 30.1867 66.5003 30.1487C66.417 30.1107 66.3259 30.0923 66.2342 30.0948C66.0204 30.0948 65.4971 30.0437 64.8411 30.0072C64.9517 29.6053 65.0548 29.2254 65.1286 28.8674L66.5069 28.8308Z" fill="white"/>
    <path fillRule="evenodd" clipRule="evenodd" d="M75.6609 28.8381C75.7784 28.4546 75.7784 28.0452 75.6609 27.6618C75.5391 27.4995 75.3782 27.37 75.193 27.2851C75.0077 27.2002 74.804 27.1625 74.6003 27.1756C74.3967 27.1887 74.1995 27.252 74.0269 27.3599C73.8543 27.4678 73.7116 27.6168 73.6119 27.7933C73.3244 28.2609 72.8748 29.0354 72.2998 29.9852C72.0787 30.3724 71.8576 30.7158 71.666 31.0154C71.5996 31.1104 71.5701 31.1615 71.5259 31.1615C71.4817 31.1615 71.4301 31.1615 71.4154 31.0008C71.3638 30.6135 71.3195 29.3349 71.2901 28.7577C71.2237 27.6179 70.9215 27.3476 70.6267 27.238C70.3187 27.1085 69.9715 27.105 69.6608 27.2281C69.3501 27.3513 69.1012 27.5912 68.9683 27.8956C68.7324 28.7066 67.6341 32.5497 67.413 33.2657C67.1477 34.1717 68.5997 34.9389 69.0125 33.7187C69.2557 32.9881 69.6169 31.2565 69.8233 30.5843C69.8675 30.4236 69.9191 30.3724 69.9486 30.387C69.9781 30.4017 69.9486 30.4674 70.0002 30.5989C70.0002 31.293 70.0739 32.5132 70.1328 33.2438C70.1918 33.9745 70.5603 34.1717 71.01 34.0767C71.3048 34.011 71.5333 33.6676 71.747 33.3461C72.1672 32.7032 72.2777 32.4474 72.8084 31.5634L73.3981 30.5843C73.4718 30.4528 73.5603 30.4893 73.516 30.6647C73.2728 31.5049 72.9632 32.5936 72.779 33.2584C72.5431 34.1717 74.0246 34.9608 74.3637 33.7114C74.7027 32.462 75.2776 30.3213 75.6167 28.8308L75.6609 28.8381Z" fill="white"/>
    <path fillRule="evenodd" clipRule="evenodd" d="M52.6789 30.6136C52.4018 30.462 52.0927 30.3771 51.7765 30.3656C51.4603 30.3542 51.1457 30.4166 50.8583 30.5478C49.9296 30.9935 49.6347 31.673 49.8485 32.8712C49.9333 33.1148 50.0663 33.3391 50.2397 33.5311C50.4131 33.723 50.6234 33.8787 50.8583 33.9891C51.0593 34.1014 51.2817 34.1711 51.5114 34.1938C51.7411 34.2164 51.973 34.1915 52.1924 34.1206C52.6596 33.9701 53.0573 33.6593 53.314 33.2441C53.5707 32.8289 53.6696 32.3366 53.5929 31.8556C53.559 31.5927 53.4607 31.3421 53.3065 31.1255C53.1523 30.909 52.9469 30.7332 52.7084 30.6136H52.6789Z" fill="white"/>
    <path fillRule="evenodd" clipRule="evenodd" d="M59.2831 41.0836C59.2394 41.1707 59.1705 41.243 59.0852 41.2912C58.9998 41.3393 58.9019 41.3612 58.804 41.3539C58.727 41.3327 58.6587 41.2882 58.6085 41.2267C58.5582 41.1651 58.5287 41.0895 58.5239 41.0105C58.4625 40.6227 58.5105 40.2256 58.6627 39.8633C58.8149 39.5009 59.0654 39.1874 59.3863 38.9574C59.4233 38.9363 59.4652 38.9251 59.5079 38.9251C59.5506 38.9251 59.5926 38.9363 59.6295 38.9574C59.661 38.9779 59.6864 39.0063 59.7032 39.0396C59.72 39.073 59.7277 39.1102 59.7254 39.1474C59.8142 39.8359 59.6577 40.5336 59.2831 41.1201V41.0836ZM60.4403 37.993C60.315 37.993 60.116 38.0514 59.8433 38.2706L59.7991 38.3145L59.7032 38.2341C59.6369 38.0807 59.5853 37.9564 59.4821 37.9199C59.3789 37.8834 59.2168 37.9199 58.9809 38.0441C58.5748 38.2707 58.2258 38.5857 57.9602 38.9654C57.6946 39.3451 57.5194 39.7795 57.4478 40.236C57.3791 40.5269 57.3712 40.8286 57.4244 41.1226C57.4777 41.4166 57.591 41.6967 57.7574 41.9457C57.8621 42.0889 57.9952 42.2094 58.1486 42.2999C58.3019 42.3903 58.4723 42.4488 58.6492 42.4718C58.8683 42.4772 59.0859 42.434 59.2861 42.3456C59.4863 42.2571 59.664 42.1255 59.8064 41.9603C60.2088 41.5531 60.4982 41.0497 60.6467 40.4991C60.7664 40.1081 60.8285 39.7021 60.831 39.2935C60.8452 38.927 60.7746 38.5621 60.6246 38.2268C60.5509 38.0733 60.4846 38.0076 60.3961 37.993H60.4403Z" fill="white"/>
    <path fillRule="evenodd" clipRule="evenodd" d="M66.5583 38.1975C66.5668 38.1615 66.5668 38.124 66.5583 38.0879C66.4808 38.0008 66.3728 37.946 66.2561 37.9345C66.1235 37.9345 65.7844 37.876 65.7107 38.1098C65.4924 38.7705 65.0563 39.3393 64.4724 39.7245L64.3766 39.7684C64.3766 39.7684 64.7009 38.6359 64.723 38.4898C64.8188 38.0441 64.5535 37.9199 64.4356 37.8833C64.313 37.8471 64.1814 37.8561 64.0649 37.9084C63.9484 37.9608 63.855 38.053 63.8017 38.1683C63.728 38.4313 63.3226 39.783 63.3226 39.783L63.271 39.688C63.1525 39.4538 63.0563 39.2092 62.9835 38.9574C62.8953 38.6429 62.8458 38.3191 62.8361 37.9929C62.8305 37.9538 62.8136 37.9171 62.7875 37.8873C62.7613 37.8575 62.727 37.8358 62.6887 37.8249C62.5462 37.7716 62.3889 37.7716 62.2464 37.8249C62.1064 37.876 61.959 37.9929 62.0106 38.4386C62.0375 38.7855 62.1118 39.1272 62.2317 39.4542C62.2895 39.604 62.3559 39.7503 62.4307 39.8926V39.9291C61.7591 40.52 61.1715 41.1983 60.6838 41.9457C60.6612 41.9872 60.6494 42.0336 60.6494 42.0808C60.6494 42.128 60.6612 42.1745 60.6838 42.216C60.7179 42.2807 60.766 42.3371 60.8246 42.3813C60.8832 42.4255 60.9509 42.4564 61.0229 42.4717H61.0966C61.244 42.4717 61.3767 42.5229 61.4872 42.3548C61.8837 41.7172 62.3815 41.1473 62.9614 40.667L63.0793 40.594L62.6518 41.9091C62.6227 42.0369 62.6449 42.1708 62.7137 42.2827C62.7825 42.3945 62.8925 42.4754 63.0204 42.5082C63.0813 42.5293 63.1462 42.537 63.2105 42.5305C63.2747 42.5241 63.3368 42.5038 63.3923 42.4711C63.4478 42.4384 63.4954 42.394 63.5317 42.3411C63.5681 42.2882 63.5923 42.228 63.6027 42.1648C63.669 41.9822 63.7869 41.573 63.8975 41.2077L64.1039 40.5136C64.2258 40.8132 64.3268 41.1208 64.4061 41.4342C64.465 41.7703 64.5682 42.2891 64.5756 42.3475C64.6198 42.6325 65.1653 42.5155 65.1653 42.5155C65.2104 42.5111 65.2541 42.4976 65.2937 42.4758C65.3333 42.454 65.368 42.4244 65.3956 42.3888C65.4232 42.3532 65.4432 42.3124 65.4543 42.2688C65.4654 42.2253 65.4674 42.18 65.4601 42.1356C65.4666 42.0651 65.4666 41.9942 65.4601 41.9237C65.3771 41.417 65.2207 40.9249 64.9957 40.4625C65.7072 39.963 66.2268 39.2393 66.4699 38.4094C66.4787 38.3537 66.4787 38.297 66.4699 38.2413L66.5583 38.1975Z" fill="white"/>
    <path fillRule="evenodd" clipRule="evenodd" d="M68.4603 41.0763V41.5658H67.5021V41.5C67.9205 40.7607 68.2708 39.9856 68.5487 39.1839C68.5487 39.1839 68.5487 39.1255 68.615 39.1328C68.6814 39.1401 68.615 39.2058 68.615 39.2058C68.5413 39.8707 68.5045 40.5648 68.4676 41.0763H68.4603ZM69.8607 41.8726C69.8191 41.7972 69.76 41.7326 69.6882 41.6843C69.6164 41.636 69.5341 41.6054 69.4479 41.595H69.4037V41.5C69.4627 40.8424 69.4627 39.9876 69.4627 39.3081C69.4627 38.9063 69.4627 38.5775 69.4627 38.351C69.4695 38.2809 69.4566 38.2103 69.4254 38.1471C69.3942 38.0839 69.3458 38.0305 69.2858 37.993C69.2202 37.9536 69.145 37.9329 69.0683 37.9329C68.9917 37.9329 68.9165 37.9536 68.8509 37.993C68.7354 37.9343 68.6024 37.9191 68.4765 37.9499C68.3505 37.9808 68.24 38.0558 68.1654 38.161C68.018 38.4021 67.679 39.1328 67.3473 39.8415C67.0156 40.5502 66.6692 41.3027 66.5365 41.5365H66.4554C66.3844 41.5348 66.3139 41.5498 66.2499 41.5803C66.1858 41.6108 66.1299 41.6559 66.0869 41.7119C66.0418 41.7623 66.009 41.8223 65.991 41.8873C65.991 41.8873 65.9026 42.1868 65.8731 42.3622C65.8691 42.3864 65.8691 42.411 65.8731 42.4352C65.8747 42.531 65.9084 42.6236 65.9689 42.6983C66.0021 42.7413 66.0443 42.7767 66.0927 42.802C66.1411 42.8272 66.1944 42.8417 66.249 42.8444C66.3634 42.8606 66.4799 42.8395 66.581 42.7841C66.6821 42.7287 66.7622 42.6421 66.8092 42.5375H68.9025V42.5814C68.9025 42.7567 69.1163 42.8517 69.3079 42.8517C69.4143 42.8649 69.5222 42.8445 69.6162 42.7934C69.7102 42.7422 69.7854 42.6629 69.8312 42.5667C69.8783 42.4178 69.9177 42.2666 69.9492 42.1137C69.9467 42.0418 69.9265 41.9715 69.8902 41.9092L69.8607 41.8726Z" fill="white"/>
    <path fillRule="evenodd" clipRule="evenodd" d="M55.627 41.0762V41.5658H54.6688V41.5C55.0734 40.77 55.409 40.0045 55.6712 39.2131C55.6712 39.2131 55.6712 39.1547 55.7375 39.162C55.8039 39.1693 55.7375 39.235 55.7375 39.235C55.6712 39.8999 55.627 40.594 55.5975 41.1055L55.627 41.0762ZM57.0274 41.8726C56.9825 41.7984 56.9215 41.735 56.8488 41.687C56.7762 41.6389 56.6937 41.6075 56.6073 41.595H56.5631V41.5C56.622 40.8424 56.622 39.9876 56.622 39.3081C56.622 38.9062 56.622 38.5775 56.622 38.351C56.6258 38.287 56.6129 38.2231 56.5845 38.1655C56.5561 38.1079 56.5131 38.0585 56.4599 38.0222C56.3929 37.983 56.3165 37.9623 56.2387 37.9623C56.161 37.9623 56.0846 37.983 56.0176 38.0222C55.9036 37.9624 55.7713 37.9465 55.6461 37.9775C55.5209 38.0085 55.4118 38.0843 55.3395 38.1902C55.1995 38.4313 54.853 39.162 54.5287 39.8707C54.2044 40.5794 53.8432 41.3319 53.7106 41.5658H53.5852C53.5144 41.5652 53.4443 41.5807 53.3805 41.6111C53.3166 41.6415 53.2606 41.6859 53.2167 41.7411C53.1754 41.7929 53.1453 41.8526 53.1283 41.9165C53.0781 42.0725 53.0362 42.231 53.003 42.3914V42.3768C53.0019 42.4718 53.033 42.5644 53.0914 42.6398C53.1252 42.6822 53.1676 42.7171 53.2159 42.7422C53.2641 42.7674 53.3171 42.7823 53.3715 42.7859C53.486 42.8034 53.6031 42.7828 53.7044 42.7273C53.8058 42.6717 53.8857 42.5844 53.9317 42.479H56.025V42.5229C56.025 42.6982 56.2387 42.7932 56.4378 42.7932C56.5431 42.806 56.6498 42.7853 56.7426 42.7341C56.8353 42.6829 56.9092 42.6038 56.9537 42.5083C57.0008 42.3594 57.0402 42.2082 57.0716 42.0553C57.0685 41.9843 57.051 41.9147 57.02 41.8507L57.0274 41.8726Z" fill="white"/>
    <path fillRule="evenodd" clipRule="evenodd" d="M72.4029 40.6086C72.4326 40.645 72.4523 40.6883 72.46 40.7344C72.4678 40.7805 72.4633 40.8278 72.4471 40.8717C72.3513 41.3027 72.1523 41.405 71.71 41.4781C71.6555 41.4876 71.5994 41.4825 71.5475 41.4632C71.4957 41.444 71.45 41.4112 71.4152 41.3685C71.3727 41.3141 71.3494 41.2473 71.3489 41.1785C71.3384 41.1279 71.3384 41.0757 71.3489 41.0251C71.3489 41.0251 71.5037 40.6306 71.5037 40.6159C71.5128 40.6114 71.5229 40.6091 71.5332 40.6091C71.5434 40.6091 71.5535 40.6114 71.5626 40.6159C71.6142 40.6159 72.2407 40.5283 72.3587 40.6159L72.4029 40.6086ZM71.7911 37.993C71.6562 37.9534 71.5111 37.9671 71.3861 38.0311C71.2612 38.095 71.1659 38.2044 71.1204 38.3364L70.9214 39.067L70.6339 40.1045C70.5086 40.5283 70.3538 40.952 70.2949 41.1055C70.2509 41.207 70.2283 41.3164 70.2285 41.4269C70.2699 41.6518 70.3577 41.8657 70.4865 42.0553C70.5429 42.1743 70.6327 42.2748 70.7451 42.3447C70.8574 42.4147 70.9877 42.4511 71.1204 42.4498C71.8097 42.5002 72.4917 42.2827 73.0221 41.8434C73.1625 41.7307 73.2772 41.5897 73.3586 41.4297C73.4399 41.2698 73.486 41.0945 73.4938 40.9155C73.517 40.6965 73.4807 40.4754 73.3887 40.275C73.2967 40.0746 73.1523 39.9022 72.9705 39.7757C72.7171 39.7018 72.4527 39.6721 72.1892 39.688C72.0839 39.7002 71.9775 39.7002 71.8722 39.688H71.8206C71.8206 39.688 72.1081 38.5702 72.1302 38.4533C72.1407 38.4007 72.1402 38.3466 72.1285 38.2943C72.1169 38.242 72.0944 38.1926 72.0625 38.1494C72.0307 38.1061 71.9901 38.0699 71.9434 38.043C71.8967 38.016 71.8448 37.999 71.7911 37.993Z" fill="white"/>
    <path fillRule="evenodd" clipRule="evenodd" d="M17.8223 38.4313C17.7624 38.2648 17.6527 38.1204 17.5078 38.0172C17.363 37.9141 17.1898 37.8572 17.0115 37.8541C16.6377 37.8596 16.2747 37.9796 15.9722 38.1975C15.361 38.6628 14.9417 39.333 14.7929 40.0826C14.6774 40.3857 14.6275 40.7096 14.6465 41.0331C14.6656 41.3566 14.7531 41.6725 14.9035 41.9603C15.0135 42.104 15.1533 42.2227 15.3135 42.3084C15.4737 42.3941 15.6506 42.4448 15.8322 42.4571C16.1421 42.4594 16.4484 42.3907 16.7271 42.2564C17.0058 42.122 17.2494 41.9257 17.439 41.6826C17.4991 41.5858 17.5321 41.4748 17.5348 41.3612C17.528 41.2199 17.4764 41.0844 17.3874 40.9739C17.3429 40.9186 17.2853 40.875 17.2197 40.847C17.1542 40.8189 17.0827 40.8073 17.0115 40.8132C16.9529 40.8108 16.8945 40.8229 16.8418 40.8484C16.789 40.8739 16.7435 40.912 16.7093 40.9593C16.6552 41.0765 16.5708 41.1774 16.4647 41.2519C16.3585 41.3263 16.2344 41.3716 16.1049 41.3831C16.0492 41.3817 15.9947 41.3671 15.9459 41.3403C15.8972 41.3136 15.8556 41.2757 15.8248 41.2297C15.7143 41.0835 15.6258 40.762 15.8248 40.1045C16.0238 39.4469 16.3408 38.8697 16.6651 38.8624C16.7904 38.8624 16.901 38.9574 16.982 39.1547C17.041 39.3008 17.0705 39.4177 17.1958 39.4688C17.3211 39.52 17.5717 39.3519 17.5717 39.3519C17.7281 39.2537 17.8415 39.1007 17.8893 38.9233C17.9371 38.746 17.9158 38.5573 17.8297 38.3948L17.8223 38.4313Z" fill="white"/>
    <path fillRule="evenodd" clipRule="evenodd" d="M42.7503 38.3948C42.7762 38.298 42.7639 38.195 42.716 38.1069C42.6681 38.0187 42.5881 37.9518 42.4924 37.9199C42.3644 37.8882 42.2292 37.9041 42.1123 37.9648C41.9954 38.0254 41.9051 38.1264 41.8585 38.2487C41.7995 38.4679 41.4383 39.71 41.4383 39.71H40.318C40.318 39.71 40.5907 38.6579 40.6497 38.3875C40.6752 38.2897 40.6618 38.186 40.6125 38.0976C40.5631 38.0093 40.4815 37.9431 40.3843 37.9126C40.2564 37.8809 40.1211 37.8968 40.0043 37.9575C39.8874 38.0181 39.7971 38.1191 39.7504 38.2414L39.6104 38.7309L39.3377 39.6881C39.1914 39.7331 39.0643 39.825 38.9763 39.9492C38.8883 40.0735 38.8443 40.2232 38.8512 40.3749C38.8512 40.5137 38.8954 40.6598 39.0207 40.6817H39.0649C39.0649 40.6817 38.8512 41.4124 38.7406 41.7996C38.7336 41.8432 38.7336 41.8875 38.7406 41.9311C38.747 42.0377 38.7855 42.14 38.8513 42.2247C38.917 42.3094 39.0068 42.3725 39.1092 42.406C39.1702 42.4246 39.2346 42.43 39.2979 42.422C39.3613 42.414 39.4222 42.3927 39.4766 42.3595C39.531 42.3263 39.5776 42.282 39.6134 42.2296C39.6492 42.1771 39.6733 42.1177 39.6841 42.0553C39.802 41.7119 40.1116 40.594 40.1116 40.594H41.2172L40.8634 41.7631C40.8316 41.8899 40.8507 42.024 40.9167 42.1371C40.9827 42.2503 41.0904 42.3336 41.2172 42.3695C41.2778 42.3881 41.3417 42.3935 41.4047 42.3854C41.4676 42.3774 41.528 42.356 41.5818 42.3227C41.6357 42.2894 41.6817 42.2451 41.7167 42.1926C41.7517 42.1402 41.7749 42.0809 41.7848 42.0188C42.1017 41.0763 42.6619 39.0086 42.8019 38.3656L42.7503 38.3948Z" fill="white"/>
    <path fillRule="evenodd" clipRule="evenodd" d="M51.6475 36.349C51.5751 36.3352 51.5006 36.3357 51.4285 36.3508C51.3563 36.3659 51.2879 36.3951 51.2273 36.4367H51.1757C50.7998 36.634 50.4018 36.8313 50.0849 36.5244C50.0532 36.491 50.0149 36.4644 49.9724 36.4462C49.93 36.428 49.8842 36.4186 49.8379 36.4186C49.7917 36.4186 49.7459 36.428 49.7035 36.4462C49.661 36.4644 49.6227 36.491 49.591 36.5244C49.5436 36.5669 49.5057 36.6187 49.4798 36.6766C49.4538 36.7345 49.4404 36.7971 49.4404 36.8605C49.4404 36.9238 49.4538 36.9865 49.4798 37.0444C49.5057 37.1023 49.5436 37.1541 49.591 37.1966C49.6852 37.2968 49.7993 37.3765 49.9262 37.4306C50.0531 37.4847 50.19 37.512 50.3281 37.5108C50.7973 37.5166 51.251 37.344 51.5959 37.0285C51.7802 36.8459 51.8612 36.7071 51.7728 36.5098C51.7608 36.4732 51.7407 36.4397 51.7139 36.4119C51.6871 36.3841 51.6543 36.3626 51.618 36.349H51.6475Z" fill="white"/>
    <path fillRule="evenodd" clipRule="evenodd" d="M47.8149 38.3948C47.8404 38.297 47.8271 38.1933 47.7777 38.1049C47.7284 38.0166 47.6467 37.9503 47.5496 37.9199C47.4226 37.8868 47.2877 37.9022 47.1716 37.9631C47.0555 38.024 46.9668 38.126 46.9231 38.2487C46.7756 38.782 46.0091 41.3904 45.8838 41.8215C45.8773 41.8626 45.8773 41.9045 45.8838 41.9457C45.8877 42.0539 45.9252 42.1583 45.9911 42.2446C46.0571 42.3309 46.1483 42.3949 46.2523 42.4279C46.3129 42.4465 46.3769 42.4519 46.4398 42.4439C46.5027 42.4358 46.5631 42.4144 46.6169 42.3811C46.6708 42.3478 46.7168 42.3035 46.7518 42.2511C46.7868 42.1986 46.81 42.1393 46.8199 42.0772C47.1368 41.1493 47.697 39.0889 47.837 38.424L47.8149 38.3948Z" fill="white"/>
    <path fillRule="evenodd" clipRule="evenodd" d="M21.1393 38.1099C21.1048 38.0723 21.0626 38.0425 21.0156 38.0223C20.9686 38.0022 20.9178 37.9922 20.8666 37.993C20.7781 37.993 19.2966 37.8907 18.928 37.9053C18.7573 37.9324 18.6034 38.0231 18.4979 38.1589C18.3924 38.2947 18.3433 38.4654 18.3605 38.6359C18.3605 38.7821 18.4121 38.9501 18.5448 38.9574H18.6037L18.0435 41.0324C17.9762 41.2088 17.9485 41.3976 17.9625 41.5856C17.9765 41.7737 18.0319 41.9564 18.1246 42.1211C18.2017 42.2247 18.305 42.3063 18.424 42.3576C18.5431 42.4089 18.6738 42.4281 18.8027 42.4133H19.6799C20.1958 42.4133 20.24 42.1941 20.2916 41.9165C20.2952 41.8459 20.2952 41.7752 20.2916 41.7046C20.2971 41.6373 20.2789 41.5701 20.24 41.5146C20.2159 41.4912 20.1869 41.4732 20.1551 41.4619C20.1233 41.4506 20.0894 41.4461 20.0558 41.4489H19.3187C19.2694 41.4557 19.2193 41.4527 19.1713 41.4402C19.1232 41.4276 19.0781 41.4057 19.0386 41.3758C19.0172 41.3287 19.0062 41.2777 19.0062 41.226C19.0062 41.1744 19.0172 41.1233 19.0386 41.0763L19.1418 40.6671H20.0705C20.616 40.6671 20.6675 40.426 20.7265 40.1557C20.7393 40.1017 20.7399 40.0456 20.7285 39.9913C20.717 39.937 20.6937 39.8859 20.6602 39.8415C20.6267 39.8027 20.5847 39.7721 20.5374 39.7518C20.4902 39.7316 20.4389 39.7223 20.3875 39.7246L19.444 39.6661L19.643 38.9355H20.557C21.1172 38.9355 21.154 38.709 21.2204 38.4314C21.2342 38.3763 21.2355 38.3188 21.224 38.2631C21.2125 38.2075 21.1886 38.1551 21.154 38.1099H21.1393Z" fill="white"/>
    <path fillRule="evenodd" clipRule="evenodd" d="M27.9201 38.1098C27.887 38.0725 27.8462 38.0427 27.8004 38.0225C27.7545 38.0023 27.7049 37.9922 27.6547 37.9929H27.124C26.6892 37.9929 26.0774 37.9199 25.7015 37.9345C25.3256 37.9491 25.1487 38.3583 25.1487 38.6651C25.1487 38.8186 25.1929 38.9793 25.3256 38.9866H25.3845C25.3845 38.9866 24.8317 41.0251 24.817 41.0616C24.7507 41.2385 24.7243 41.4276 24.7396 41.6156C24.7548 41.8037 24.8115 41.9862 24.9054 42.1502C24.9856 42.2523 25.0904 42.3326 25.2103 42.3837C25.3301 42.4348 25.4611 42.455 25.5909 42.4425H26.4533C26.9619 42.4425 27.0135 42.2306 27.0724 41.9603V41.9091C27.0783 41.8533 27.0783 41.797 27.0724 41.7411C27.0753 41.6717 27.0574 41.6031 27.0208 41.5438C26.9964 41.5208 26.9674 41.5031 26.9357 41.4917C26.904 41.4804 26.8702 41.4758 26.8366 41.4781H26.0995C26.0514 41.4851 26.0024 41.4823 25.9554 41.4697C25.9085 41.4571 25.8647 41.4351 25.8268 41.405C25.787 41.309 25.787 41.2014 25.8268 41.1054L25.93 40.6963H26.8292C27.3894 40.6963 27.4336 40.4479 27.4852 40.1848C27.4971 40.1312 27.4981 40.0758 27.4879 40.0218C27.4778 39.9678 27.4568 39.9164 27.4262 39.8707C27.3927 39.8319 27.3507 39.8013 27.3035 39.781C27.2562 39.7608 27.2049 39.7515 27.1535 39.7538L26.21 39.6953L26.2911 39.4031C26.3354 39.2642 26.4164 38.9647 26.4164 38.9647H27.3304C27.8759 38.9647 27.9201 38.7382 27.979 38.4605C27.9934 38.4059 27.9956 38.3489 27.9854 38.2933C27.9753 38.2378 27.9529 38.1852 27.9201 38.1391V38.1098Z" fill="white"/>
    <path fillRule="evenodd" clipRule="evenodd" d="M44.8216 40.9155C44.7798 41.0706 44.681 41.2046 44.5446 41.2911C44.4082 41.3776 44.2441 41.4105 44.0845 41.3831C44.0522 41.3734 44.0222 41.3571 43.9966 41.3353C43.9709 41.3134 43.9502 41.2865 43.9356 41.2562C43.921 41.226 43.913 41.1931 43.912 41.1596C43.911 41.1261 43.917 41.0927 43.9297 41.0617C43.9297 40.9667 44.0919 40.5502 44.0919 40.5502C44.3425 40.5502 44.6595 40.4991 44.7848 40.6525C44.8094 40.6933 44.8225 40.7401 44.8225 40.7877C44.8225 40.8353 44.8094 40.882 44.7848 40.9228L44.8216 40.9155ZM45.4702 39.9365C45.3406 39.8219 45.186 39.7385 45.0185 39.6929C44.851 39.6473 44.6752 39.6406 44.5047 39.6734H44.3057C44.2996 39.6649 44.2964 39.6547 44.2964 39.6442C44.2964 39.6338 44.2996 39.6236 44.3057 39.615C44.4752 39.0597 44.5858 38.6579 44.6447 38.3875C44.6722 38.2916 44.6606 38.1888 44.6123 38.1014C44.5641 38.0139 44.483 37.9487 44.3867 37.9199C44.2597 37.8806 44.1221 37.8923 44.0036 37.9524C43.8851 38.0125 43.795 38.1162 43.7529 38.2414C43.657 38.5848 43.3769 39.4835 43.1484 40.1995C43.0305 40.5794 42.8684 41.1639 42.8684 41.1639C42.8219 41.3242 42.8104 41.4924 42.8346 41.6574C42.8587 41.8224 42.918 41.9805 43.0084 42.1211C43.0914 42.2122 43.1943 42.2833 43.3093 42.3289C43.4243 42.3745 43.5483 42.3934 43.6718 42.3841C44.1637 42.3806 44.6453 42.2442 45.0649 41.9896C45.2629 41.879 45.4325 41.7245 45.5604 41.5382C45.6883 41.3519 45.7709 41.1388 45.8019 40.9155C45.8333 40.7391 45.8208 40.5577 45.7656 40.3872C45.7103 40.2166 45.614 40.0619 45.485 39.9365H45.4702Z" fill="white"/>
    <path fillRule="evenodd" clipRule="evenodd" d="M50.3501 42.3256C50.4617 42.3595 50.582 42.3505 50.6872 42.3004C50.7924 42.2503 50.8747 42.1628 50.9177 42.0553C51.0504 41.4269 51.3083 40.5063 51.5147 39.7684C51.6621 39.2277 51.7948 38.7601 51.8169 38.6067C51.8906 38.1026 51.8169 38.0368 51.5958 37.993C51.4908 37.9765 51.3839 37.9765 51.2789 37.993C51.1755 38.0211 51.0862 38.0862 51.0283 38.1756C51.0283 38.1756 49.6647 39.7392 49.5541 39.9364C49.4435 40.1337 49.3551 40.1995 49.3109 40.2433C49.2666 40.2872 49.2298 40.2433 49.2298 40.2433C49.2298 40.2433 49.6057 38.8989 49.6647 38.709C49.6967 38.6022 49.7141 38.4916 49.7163 38.3802C49.7178 38.2915 49.6975 38.2037 49.6573 38.1245C49.6352 38.0907 49.6059 38.0621 49.5716 38.0407C49.5372 38.0192 49.4985 38.0054 49.4583 38.0003C49.3261 37.9843 49.1924 37.9843 49.0603 38.0003C48.9497 38.0003 48.8612 38.1318 48.7802 38.351C48.3888 39.514 48.0809 40.703 47.8588 41.9092C47.8507 42.013 47.8783 42.1165 47.9372 42.2028C47.9961 42.2891 48.0828 42.353 48.1831 42.3841C48.2977 42.4154 48.4194 42.4088 48.5299 42.3653C48.6403 42.3218 48.7334 42.2437 48.7949 42.143L50.328 40.2945C50.328 40.2945 50.3796 40.2433 50.4017 40.2433C50.4239 40.2433 50.4017 40.2433 50.4017 40.3383C50.3428 40.5283 50.1143 41.4781 50.0479 41.7996C50.0291 41.8577 50.0232 41.9191 50.0305 41.9798C50.0379 42.0404 50.0583 42.0987 50.0905 42.1507C50.1227 42.2028 50.1659 42.2473 50.2171 42.2812C50.2682 42.3152 50.3262 42.3378 50.387 42.3475L50.3501 42.3256Z" fill="white"/>
    <path fillRule="evenodd" clipRule="evenodd" d="M30.1469 40.5867C30.187 40.6306 30.2081 40.6883 30.2058 40.7474C30.2089 40.779 30.2089 40.8108 30.2058 40.8424C30.1892 41.0307 30.1063 41.2071 29.9715 41.3407C29.8367 41.4743 29.6587 41.5566 29.4688 41.5731C29.4124 41.5832 29.3543 41.5776 29.301 41.557C29.2476 41.5363 29.2011 41.5014 29.1666 41.4561C29.125 41.4045 29.1041 41.3395 29.1076 41.2735C29.0979 41.2253 29.0979 41.1756 29.1076 41.1274C29.1076 41.0616 29.2624 40.6013 29.2624 40.6013H29.314H29.4835C29.7341 40.6013 30.0216 40.5282 30.1469 40.6671V40.5867ZM31.3188 38.1098C31.2864 38.0717 31.2457 38.0413 31.1998 38.0211C31.1538 38.0008 31.1038 37.9912 31.0535 37.9929H30.508C30.0216 37.9929 29.3508 37.9199 28.9676 37.9345C28.7982 37.9632 28.6461 38.0547 28.5421 38.1903C28.4381 38.3259 28.39 38.4956 28.4074 38.6651C28.4074 38.8186 28.4516 38.9793 28.5843 38.9866H28.6506L28.2157 40.5136C28.1347 40.7913 28.0609 41.0543 27.9946 41.2443C27.9487 41.3455 27.9236 41.4548 27.9209 41.5657C27.9392 41.7936 28.0325 42.0092 28.1862 42.1795C28.2422 42.2974 28.3308 42.3971 28.4417 42.4669C28.5526 42.5368 28.6813 42.5739 28.8128 42.574C29.1313 42.5956 29.4509 42.5543 29.7533 42.4528C30.0556 42.3512 30.3347 42.1913 30.5744 41.9822C30.732 41.8543 30.8612 41.6955 30.9538 41.5157C31.0464 41.3358 31.1004 41.1389 31.1125 40.9374C31.1298 40.7207 31.085 40.5035 30.9833 40.3109C30.8816 40.1184 30.727 39.9581 30.5375 39.8488C30.1926 39.7574 29.8397 39.6986 29.4835 39.6734L29.6751 38.9428H30.7365C31.282 38.9428 31.3262 38.709 31.3852 38.4386C31.3991 38.3835 31.4003 38.3261 31.3888 38.2704C31.3773 38.2148 31.3534 38.1624 31.3188 38.1171V38.1098Z" fill="white"/>
    <path fillRule="evenodd" clipRule="evenodd" d="M22.8937 39.1108C22.8978 39.0793 22.8978 39.0474 22.8937 39.0158C22.8702 38.9619 22.8528 38.9055 22.8421 38.8478C22.8357 38.8263 22.8357 38.8035 22.8421 38.782C22.8564 38.7631 22.8756 38.7484 22.8976 38.7394C22.9197 38.7304 22.9438 38.7275 22.9674 38.7309C23.067 38.7254 23.1668 38.7401 23.2605 38.774C23.3543 38.8079 23.4401 38.8604 23.5128 38.9282C23.6262 39.0576 23.6867 39.2244 23.6823 39.3958C23.6279 39.6152 23.5027 39.8109 23.3258 39.9534C23.1488 40.0958 22.9298 40.1771 22.702 40.1848H22.6431C22.753 39.8284 22.8368 39.4646 22.8937 39.0962V39.1108ZM22.3998 41.1127C22.8366 41.088 23.2611 40.9602 23.6381 40.7401C24.0653 40.4965 24.3917 40.1109 24.5595 39.6515C24.6326 39.4619 24.6619 39.2585 24.6453 39.0562C24.6287 38.8539 24.5667 38.6579 24.4636 38.4825C24.2541 38.2613 23.9943 38.0928 23.7058 37.9912C23.4174 37.8895 23.1086 37.8576 22.8052 37.898C21.6701 37.898 21.6333 38.2706 21.6038 38.5628C21.6038 38.709 21.6038 38.8478 21.6038 38.8989C21.6038 38.9501 21.6038 38.8989 21.6996 38.8989C21.7954 38.8989 21.8618 39.0231 21.8691 39.0816C21.8666 39.1709 21.8517 39.2593 21.8249 39.3446C21.6554 39.9437 21.2426 41.3612 21.0878 41.7922C21.0579 41.919 21.0778 42.0522 21.1435 42.1649C21.2093 42.2776 21.3159 42.3612 21.4416 42.3987C21.5022 42.4172 21.5662 42.4227 21.6291 42.4146C21.692 42.4065 21.7524 42.3851 21.8062 42.3519C21.8601 42.3186 21.9061 42.2742 21.9411 42.2218C21.9761 42.1694 21.9993 42.1101 22.0092 42.048C22.1124 41.7411 22.3114 41.0835 22.3114 41.0835L22.3998 41.1127Z" fill="white"/>
    <path fillRule="evenodd" clipRule="evenodd" d="M36.6623 40.046C36.5443 39.9876 36.419 39.8415 36.478 39.4908C36.5181 39.3057 36.6291 39.1433 36.7876 39.0378C36.9042 38.9601 37.036 38.9076 37.1744 38.8837C37.3128 38.8598 37.4547 38.865 37.591 38.8989C37.6061 38.9909 37.6061 39.0846 37.591 39.1766C37.591 39.1766 37.3772 39.8415 37.3625 39.8561C37.2756 39.9497 37.1635 40.0167 37.0394 40.0491C36.9153 40.0815 36.7844 40.0779 36.6623 40.0387V40.046ZM36.9792 42.4352C37.0978 42.4661 37.2236 42.4554 37.3352 42.4048C37.4467 42.3542 37.5371 42.2668 37.591 42.1576L38.2101 40.0753L38.5492 38.9574H38.6155C38.7335 38.9136 38.844 38.5994 38.844 38.3364C38.844 38.2998 38.844 38.256 38.844 38.2268C38.8465 38.1775 38.8337 38.1287 38.8074 38.0869C38.781 38.0451 38.7424 38.0123 38.6966 37.993C38.3765 37.951 38.054 37.929 37.731 37.9272H37.5247C37.0627 37.8893 36.6022 38.0154 36.2255 38.2831C35.8487 38.5508 35.5803 38.9426 35.4682 39.3885C35.4339 39.5172 35.4165 39.6498 35.4166 39.783C35.4156 39.9351 35.4465 40.0858 35.5074 40.2254C35.5683 40.365 35.6579 40.4906 35.7704 40.594C35.4703 41.0436 35.0626 41.4126 34.5837 41.668C34.5101 41.7125 34.4479 41.7733 34.4019 41.8455C34.3559 41.9177 34.3273 41.9995 34.3184 42.0845C34.3197 42.1534 34.3374 42.2209 34.37 42.2818C34.5321 42.6398 34.8417 42.5594 35.0554 42.4717C35.6878 42.0916 36.1989 41.542 36.5296 40.8863C36.6832 40.8815 36.834 40.8441 36.9718 40.7767L37.0898 40.7036L36.876 41.2808C36.8037 41.4447 36.7421 41.6131 36.6918 41.7849C36.5959 42.2306 36.8687 42.3475 36.9866 42.3841L36.9792 42.4352Z" fill="white"/>
    <path fillRule="evenodd" clipRule="evenodd" d="M33.1097 39.3008C33.1195 39.2378 33.1195 39.1737 33.1097 39.1108C33.1138 39.0793 33.1138 39.0474 33.1097 39.0158C33.0849 38.968 33.0699 38.9159 33.0655 38.8624C33.0591 38.8409 33.0591 38.8181 33.0655 38.7966C33.0798 38.7777 33.099 38.763 33.121 38.754C33.1431 38.745 33.1672 38.7421 33.1908 38.7455C33.2854 38.7298 33.3824 38.7355 33.4745 38.7624C33.5665 38.7892 33.6513 38.8364 33.7222 38.9004C33.7932 38.9645 33.8486 39.0436 33.8842 39.132C33.9198 39.2203 33.9347 39.3155 33.9278 39.4104C33.871 39.6259 33.7458 39.8176 33.5705 39.957C33.3953 40.0965 33.1795 40.1764 32.9549 40.1848H32.8959L33.1097 39.2862V39.3008ZM31.7829 42.4279C31.8435 42.4465 31.9075 42.4519 31.9704 42.4438C32.0333 42.4358 32.0937 42.4144 32.1476 42.3811C32.2014 42.3478 32.2474 42.3035 32.2824 42.251C32.3174 42.1986 32.3406 42.1393 32.3505 42.0772C32.4463 41.7995 32.6453 41.1127 32.6453 41.1127H32.6822C33.1138 41.0798 33.5322 40.9499 33.9057 40.7328C34.3329 40.4892 34.6594 40.1035 34.8271 39.6442C34.8986 39.4543 34.9272 39.2511 34.9106 39.0491C34.894 38.847 34.8328 38.6511 34.7313 38.4752C34.5206 38.2534 34.2595 38.0846 33.9698 37.983C33.68 37.8813 33.37 37.8496 33.0655 37.8906C31.9304 37.8906 31.9009 38.2633 31.8714 38.5628C31.8684 38.6164 31.8684 38.67 31.8714 38.7236C31.8654 38.7853 31.881 38.8472 31.9156 38.8989C31.9156 38.8989 31.9156 38.8989 32.0114 38.8989C32.1883 38.8989 32.1736 39.0889 32.1736 39.0889C32.1878 39.1735 32.1878 39.2599 32.1736 39.3446C32.1736 39.3884 31.5987 41.3612 31.4365 41.7922C31.43 41.8334 31.43 41.8753 31.4365 41.9164C31.442 42.0252 31.4809 42.1298 31.5481 42.216C31.6154 42.3022 31.7076 42.366 31.8124 42.3987L31.7829 42.4279Z" fill="white"/>
  </g>
  <defs>
    <clipPath id="clip0">
      <rect width="88" height="83" fill="white"/>
    </clipPath>
  </defs>
</svg>
