<svg width="88" xmlns="http://www.w3.org/2000/svg" viewBox="0 0 119.39 113.6">
  <path fill="#ed1a3b" fill-rule="evenodd" d="M119.39,43.57c-.06-8.39-3.63-15.25-11.08-19.27l-.71-.39-.18-.8a19.92,19.92,0,0,0-9.26-12.63c-7.22-4.43-16.38-4.91-24.4-2.64l-.91.26-.73-.61C62.84-.27,48.88-1.64,37.58,1.73,26.75,5,18.18,12.4,15.12,23.44l-.21.72-.66.37C6,29.06,0,36.64,0,46.3c0,.73,0,1.46.1,2.18C1,58.07,7.49,65.83,16.23,69.53l1.71.72-.79,1.69q-3.94,8.52-7.91,17a1.35,1.35,0,0,0-.14.63,1.6,1.6,0,0,0,.24.82,1.52,1.52,0,0,0,1.27.69h4.16L13.29,93.8,3.53,111.35a1.46,1.46,0,0,0-.2.73,1.52,1.52,0,0,0,2.59,1.07L35.18,83.89a1.51,1.51,0,0,0-1.06-2.59H28.55l2.74-3c1.17-1.3,2.35-2.59,3.52-3.88l.69-.75,1,.19a80.46,80.46,0,0,0,27.21.38c6.4-1,13-3.06,18.45-6.72l.61-.41.72.14a39.81,39.81,0,0,0,12.61.09A31.07,31.07,0,0,0,110,62c6.12-4.51,8.92-11,9.42-18.44Z"/>
  <path fill="#fff" fill-rule="evenodd" d="M25.08,24.86a2.33,2.33,0,0,0-1.66,2.54A2.18,2.18,0,0,0,26.33,29l2.45-.86L24,44.1c-.37,1.22.7,2.35,1.93,2.74A2.28,2.28,0,0,0,29,45.28c1.49-5.19,4.63-16.62,5.46-19.83a2.55,2.55,0,0,0-.48-2.4,2.26,2.26,0,0,0-2.32-.43l-6.58,2.24Z"/>
  <path fill="#fff" fill-rule="evenodd" d="M76.37,24.86A2.33,2.33,0,0,0,74.7,27.4,2.18,2.18,0,0,0,77.61,29l2.45-.86-4.83,16c-.36,1.22.69,2.35,1.93,2.74a2.28,2.28,0,0,0,3.12-1.56c1.49-5.19,4.63-16.62,5.46-19.83a2.53,2.53,0,0,0-.48-2.4,2.25,2.25,0,0,0-2.32-.43l-6.57,2.24Z"/>
  <path fill="#fff" fill-rule="evenodd" d="M44.65,37h0c-1.45,3-2.75,4.25-4.12,4.09-.83-.11-1.21-1.35-1.26-2C39,33.7,42,28.79,44,27.85c.47-.22.74-.3,1.09-.09,1.4.79,1.06,6.2-.4,9.23Zm3.64-13.87c-.5,0-.69.18-1.38.94l-.41.46-.17-.58a1.77,1.77,0,0,0-1.24-1.28,3.06,3.06,0,0,0-2.31.32c-2.8,1.25-6.27,4.51-8,11.48-1.11,4.4-.69,11.62,4.15,12.31,3.64.53,9.61-3.2,11.52-12.44,1.42-6.88-.72-9.89-.75-9.95-.34-.56-.8-1.22-1.4-1.26Z"/>
  <path fill="#fff" fill-rule="evenodd" d="M62.58,37h0c-1.46,3-2.76,4.25-4.13,4.09-.83-.11-1.21-1.35-1.26-2-.32-5.33,2.75-10.24,4.69-11.18.46-.22.74-.3,1.09-.09,1.39.79,1.06,6.2-.39,9.23Zm3.63-13.87c-.49,0-.68.18-1.38.94l-.41.46-.17-.58A1.77,1.77,0,0,0,63,22.66,3.06,3.06,0,0,0,60.7,23c-2.8,1.25-6.27,4.51-8,11.48-1.1,4.4-.68,11.62,4.16,12.31,3.64.53,9.61-3.2,11.52-12.44,1.42-6.88-.72-9.89-.75-9.95-.34-.56-.8-1.22-1.4-1.26Z"/>
  <path fill="#fff" fill-rule="evenodd" d="M90.23,39.46c1.25,0,1.36-.56,1.49-1.18a1,1,0,0,0-.8-1.23H86.77c-1.4.06-1.67,2.37-.8,2.41-.13.47-1.57,5.79-1.64,6.07a1.12,1.12,0,1,0,2.16.62c.23-.71.53-1.72.83-2.79h1.86c1.24,0,1.37-.56,1.49-1.17a.81.81,0,0,0-.81-1c-.29,0-1-.07-1.89-.12.15-.55.29-1.07.39-1.56Z"/>
  <path fill="#fff" fill-rule="evenodd" d="M102.65,39.47a2.77,2.77,0,0,0,0-1.61,1.66,1.66,0,0,0-2.78.18c-.39.64-1,1.7-1.78,3-.3.53-.6,1-.86,1.41-.09.13-.13.2-.19.2s-.13,0-.15-.22c-.07-.53-.13-2.28-.17-3.07-.09-1.56-.5-1.93-.9-2.08a1.72,1.72,0,0,0-2.25.9c-.32,1.11-1.81,6.37-2.11,7.35-.36,1.24,1.61,2.29,2.17.62.33-1,.82-3.37,1.1-4.29.06-.22.13-.29.17-.27s0,.11.07.29c0,.95.1,2.62.18,3.62s.58,1.27,1.19,1.14c.4-.09.71-.56,1-1,.57-.88.72-1.23,1.44-2.44l.8-1.34c.1-.18.22-.13.16.11-.33,1.15-.75,2.64-1,3.55-.32,1.25,1.69,2.33,2.15.62s1.24-4.64,1.7-6.68Z"/>
  <path fill="#fff" fill-rule="evenodd" d="M71.47,41.9A2.74,2.74,0,0,0,69,41.81c-1.26.61-1.66,1.54-1.37,3.18A2.65,2.65,0,0,0,69,46.52a2.26,2.26,0,0,0,1.81.18,2.8,2.8,0,0,0,1.9-3.1,2.22,2.22,0,0,0-1.2-1.7Z"/>
  <path fill="#fff" fill-rule="evenodd" d="M80.43,56.23h0a.67.67,0,0,1-.65.37.52.52,0,0,1-.38-.47h0a2.91,2.91,0,0,1,1.17-2.81h0a.33.33,0,0,1,.33,0,.29.29,0,0,1,.13.26,4.08,4.08,0,0,1-.6,2.7ZM82,52c-.17,0-.44.08-.81.38l-.06.06L81,52.33c-.09-.21-.16-.38-.3-.43s-.36,0-.68.17a4.18,4.18,0,0,0-2.08,3,3,3,0,0,0,.42,2.34,1.78,1.78,0,0,0,1.21.72,2,2,0,0,0,1.57-.7,4.53,4.53,0,0,0,1.14-2,5.8,5.8,0,0,0,.25-1.65,3.29,3.29,0,0,0-.28-1.46c-.1-.21-.19-.3-.31-.32Z"/>
  <path fill="#fff" fill-rule="evenodd" d="M90.3,52.28a.33.33,0,0,0,0-.15.63.63,0,0,0-.41-.21c-.18,0-.64-.08-.74.24a4.24,4.24,0,0,1-1.68,2.21l-.13.06s.44-1.55.47-1.75c.13-.61-.23-.78-.39-.83a.72.72,0,0,0-.86.39c-.1.36-.65,2.21-.65,2.21l-.07-.13a5.79,5.79,0,0,1-.39-1,5.54,5.54,0,0,1-.2-1.32.28.28,0,0,0-.2-.23.85.85,0,0,0-.6,0c-.19.07-.39.23-.32.84A5.25,5.25,0,0,0,84.43,54a5.73,5.73,0,0,0,.27.6l0,.05,0,0a13.48,13.48,0,0,0-2.37,2.76.39.39,0,0,0,0,.37.68.68,0,0,0,.46.35l.1,0c.2,0,.38.07.53-.16a9.52,9.52,0,0,1,2-2.31l.16-.1L85,57.36a.69.69,0,0,0,.5.82.6.6,0,0,0,.79-.47c.09-.25.25-.81.4-1.31l.28-.95a9.61,9.61,0,0,1,.41,1.26c.08.46.22,1.17.23,1.25.06.39.8.23.8.23a.45.45,0,0,0,.4-.52,1.59,1.59,0,0,0,0-.29,7.3,7.3,0,0,0-.63-2l0,0a5.23,5.23,0,0,0,2-2.81.74.74,0,0,0,0-.23Z"/>
  <path fill="#fff" fill-rule="evenodd" d="M92.88,56.22h0l0,.67-1.3,0,0-.09A19.3,19.3,0,0,0,93,53.63s0-.08.09-.07,0,.1,0,.1c-.1.91-.15,1.86-.2,2.56Zm1.9,1.09a.74.74,0,0,0-.56-.38h-.06v-.13c.08-.9.08-2.07.08-3,0-.55,0-1,0-1.31v0A.52.52,0,0,0,94,52a.57.57,0,0,0-.59,0h0l0,0a.73.73,0,0,0-.93.23h0c-.2.33-.66,1.33-1.11,2.3s-.92,2-1.1,2.32l0,0h-.11a.61.61,0,0,0-.5.24h0a.6.6,0,0,0-.13.24s-.12.41-.16.65a.31.31,0,0,0,0,.1.59.59,0,0,0,.13.36.51.51,0,0,0,.38.2.72.72,0,0,0,.76-.42l0,0,2.84,0v.06c0,.24.29.37.55.37a.69.69,0,0,0,.71-.39,6.25,6.25,0,0,0,.16-.62.6.6,0,0,0-.08-.28Z"/>
  <path fill="#fff" fill-rule="evenodd" d="M75.47,56.22h0l0,.67-1.3,0,0-.09a18.46,18.46,0,0,0,1.36-3.13s0-.08.09-.07,0,.1,0,.1c-.09.91-.15,1.86-.19,2.56Zm1.9,1.09a.8.8,0,0,0-.57-.38h-.06v-.13c.08-.9.08-2.07.08-3,0-.55,0-1,0-1.31v0a.51.51,0,0,0-.22-.45.59.59,0,0,0-.6,0h0l0,0a.71.71,0,0,0-.92.23h0c-.19.33-.66,1.33-1.1,2.3s-.93,2-1.11,2.32l0,0H72.7a.63.63,0,0,0-.5.24h0a.66.66,0,0,0-.12.24,6.34,6.34,0,0,0-.17.65V58a.58.58,0,0,0,.12.36.53.53,0,0,0,.38.2.71.71,0,0,0,.76-.42l0,0,2.84,0v.06c0,.24.29.37.56.37a.68.68,0,0,0,.7-.39,6.25,6.25,0,0,0,.16-.62.72.72,0,0,0-.07-.28Z"/>
  <path fill="#fff" fill-rule="evenodd" d="M98.23,55.58h0a.37.37,0,0,1,.06.36c-.13.59-.4.73-1,.83a.42.42,0,0,1-.4-.15.43.43,0,0,1-.09-.26.52.52,0,0,1,0-.21s.21-.54.21-.56h0a.09.09,0,0,1,.08,0c.07,0,.92-.12,1.08,0ZM97.4,52a.74.74,0,0,0-.91.47l-.27,1-.39,1.42c-.17.58-.38,1.16-.46,1.37a1.11,1.11,0,0,0-.09.44,2.27,2.27,0,0,0,.35.86.94.94,0,0,0,.86.54,3.61,3.61,0,0,0,2.58-.83A1.73,1.73,0,0,0,99.71,56,1.69,1.69,0,0,0,99,54.44a3.09,3.09,0,0,0-1.06-.12,1.86,1.86,0,0,1-.43,0l-.07,0s.39-1.53.42-1.69A.53.53,0,0,0,97.4,52Z" />
  <path fill="#fff" fill-rule="evenodd" d="M24.18,52.6a1.19,1.19,0,0,0-1.1-.79,2.46,2.46,0,0,0-1.41.47,4.3,4.3,0,0,0-1.6,2.58,3.16,3.16,0,0,0,.15,2.57,1.73,1.73,0,0,0,1.26.68,2.73,2.73,0,0,0,2.18-1.06.88.88,0,0,0,.13-.44.92.92,0,0,0-.2-.53.59.59,0,0,0-.51-.22.48.48,0,0,0-.41.2l0,0a1,1,0,0,1-.82.58.47.47,0,0,1-.38-.21c-.15-.2-.27-.64,0-1.54s.7-1.69,1.14-1.7c.17,0,.32.13.43.4v0c.08.2.12.36.29.43s.51-.16.51-.16h0a1,1,0,0,0,.35-1.31Z"/>
  <path fill="#fff" fill-rule="evenodd" d="M58,52.55a.54.54,0,0,0-.35-.65.73.73,0,0,0-.86.45c-.08.3-.57,2-.57,2l-1.52,0s.37-1.44.45-1.81a.54.54,0,0,0-.36-.65.73.73,0,0,0-.86.45s-.19.67-.19.67l-.37,1.31h0a.94.94,0,0,0-.66.94h0c0,.19.06.39.23.42H53s-.29,1-.44,1.53a.57.57,0,0,0,0,.18.73.73,0,0,0,.5.65.61.61,0,0,0,.78-.48c.16-.47.58-2,.58-2h1.5l-.48,1.6a.69.69,0,0,0,.48.83.6.6,0,0,0,.77-.48c.43-1.29,1.19-4.12,1.38-5Z"/>
  <path fill="#fff" fill-rule="evenodd" d="M70.07,49.75a.75.75,0,0,0-.57.12l-.07,0c-.51.27-1.05.54-1.48.12a.46.46,0,0,0-.67,0,.62.62,0,0,0,0,.92,1.35,1.35,0,0,0,1,.43A2.49,2.49,0,0,0,70,50.68c.25-.25.36-.44.24-.71a.35.35,0,0,0-.21-.22Z"/>
  <path fill="#fff" fill-rule="evenodd" d="M64.87,52.55a.54.54,0,0,0-.36-.65.71.71,0,0,0-.85.45c-.2.73-1.24,4.3-1.41,4.89a.55.55,0,0,0,0,.17.72.72,0,0,0,.5.66.6.6,0,0,0,.77-.48c.43-1.27,1.19-4.09,1.38-5Z"/>
  <path fill="#fff" fill-rule="evenodd" d="M28.68,52.16a.49.49,0,0,0-.37-.16c-.12,0-2.13-.14-2.63-.12a.92.92,0,0,0-.77,1c0,.2.07.43.25.44h.08l-.76,2.84a1.77,1.77,0,0,0,.11,1.49,1,1,0,0,0,.92.4l1.19,0c.7,0,.76-.3.83-.68a2.89,2.89,0,0,0,0-.29.4.4,0,0,0-.07-.26.32.32,0,0,0-.25-.09h-1a.51.51,0,0,1-.38-.1.5.5,0,0,1,0-.41l.14-.56h1.26c.74,0,.81-.33.89-.7a.52.52,0,0,0-.09-.43.46.46,0,0,0-.37-.16l-1.28-.08.27-1h1.24c.76,0,.81-.31.9-.69a.52.52,0,0,0-.09-.44Z"/>
  <path fill="#fff" fill-rule="evenodd" d="M37.88,52.16a.47.47,0,0,0-.36-.16l-.72,0c-.59,0-1.42-.1-1.93-.08s-.75.58-.75,1c0,.21.06.43.24.44h.08s-.75,2.79-.77,2.84a1.77,1.77,0,0,0,.12,1.49,1.05,1.05,0,0,0,.93.4l1.17,0c.69,0,.76-.29.84-.66v-.07a1.11,1.11,0,0,0,0-.23.48.48,0,0,0-.07-.27.33.33,0,0,0-.25-.09h-1a.48.48,0,0,1-.37-.1.54.54,0,0,1,0-.41l.14-.56H36.4c.76,0,.82-.34.89-.7a.56.56,0,0,0-.08-.43.46.46,0,0,0-.37-.16l-1.28-.08.11-.4c.06-.19.17-.6.17-.6h1.24c.74,0,.8-.31.88-.69a.53.53,0,0,0-.08-.44Z"/>
  <path fill="#fff" fill-rule="evenodd" d="M60.81,56h0a.88.88,0,0,1-1,.64.33.33,0,0,1-.21-.44c0-.13.22-.7.22-.7h0c.34,0,.77-.07.94.14a.36.36,0,0,1,0,.37Zm.88-1.34a1.53,1.53,0,0,0-1.31-.36h-.27a.07.07,0,0,1,0-.08c.23-.76.38-1.31.46-1.68a.52.52,0,0,0-.35-.64.69.69,0,0,0-.86.44c-.13.47-.51,1.7-.82,2.68-.16.52-.38,1.32-.38,1.32a1.61,1.61,0,0,0,.19,1.31,1.1,1.1,0,0,0,.9.36,3.67,3.67,0,0,0,1.89-.54,2,2,0,0,0,1-1.47,1.51,1.51,0,0,0-.43-1.34Z"/>
  <path fill="#fff" fill-rule="evenodd" d="M68.31,57.93a.63.63,0,0,0,.77-.37c.18-.86.53-2.12.81-3.13.2-.74.38-1.38.41-1.59.1-.69,0-.78-.3-.84a1.38,1.38,0,0,0-.43,0,.59.59,0,0,0-.34.25s-1.85,2.14-2,2.41-.27.36-.33.42-.11,0-.11,0,.51-1.84.59-2.1a1.69,1.69,0,0,0,.07-.45.75.75,0,0,0-.08-.35.38.38,0,0,0-.27-.17,2.23,2.23,0,0,0-.54,0c-.15,0-.27.18-.38.48a35.57,35.57,0,0,0-1.25,4.87s0,0,0,0a.63.63,0,0,0,.44.65.74.74,0,0,0,.83-.33l2.08-2.53s.07-.07.1-.07,0,0,0,.13c-.08.26-.39,1.56-.48,2a.58.58,0,0,0,.46.75Z"/>
  <path fill="#fff" fill-rule="evenodd" d="M40.9,55.55h0a.31.31,0,0,1,.08.22.69.69,0,0,1,0,.13,1.1,1.1,0,0,1-1,1,.42.42,0,0,1-.41-.16.37.37,0,0,1-.08-.25.51.51,0,0,1,0-.2c0-.09.21-.72.21-.72h0s.07,0,.07,0l.23,0c.34,0,.73-.1.9.09Zm1.59-3.39a.45.45,0,0,0-.36-.16l-.74,0c-.66,0-1.57-.1-2.09-.08a.92.92,0,0,0-.76,1h0c0,.21.06.43.24.44h.09l-.59,2.09c-.11.38-.21.74-.3,1a1.14,1.14,0,0,0-.1.44,1.43,1.43,0,0,0,.36.84v0a.94.94,0,0,0,.85.54,3.28,3.28,0,0,0,2.39-.81,2,2,0,0,0,.73-1.43,1.58,1.58,0,0,0-.78-1.49A7.65,7.65,0,0,0,40,54.3l.26-1H41.7c.74,0,.8-.32.88-.69a.52.52,0,0,0-.09-.44Z"/>
  <path fill="#fff" fill-rule="evenodd" d="M31.06,53.53h0a.51.51,0,0,0,0-.13,1.07,1.07,0,0,1-.07-.23.16.16,0,0,1,0-.09.18.18,0,0,1,.17-.07,1,1,0,0,1,.74.27.94.94,0,0,1,.23.64h0A1.42,1.42,0,0,1,30.8,55h-.08a10.56,10.56,0,0,0,.34-1.49Zm-.67,2.74h0a3.73,3.73,0,0,0,1.68-.51,2.83,2.83,0,0,0,1.25-1.49,1.86,1.86,0,0,0-.13-1.6,2.61,2.61,0,0,0-2.25-.8c-1.54,0-1.59.51-1.63.91h0c0,.2,0,.39,0,.46s0,0,.13,0,.22.17.23.25a1.34,1.34,0,0,1-.06.36c-.23.82-.79,2.76-1,3.35a.7.7,0,0,0,.48.83.6.6,0,0,0,.77-.48c.14-.42.41-1.32.41-1.32Z"/>
  <path fill="#fff" fill-rule="evenodd" d="M49.74,54.81h0c-.16-.08-.33-.28-.25-.76a1,1,0,0,1,.42-.62A1.36,1.36,0,0,1,51,53.24h0a1.18,1.18,0,0,1,0,.38s-.29.91-.31.93a.91.91,0,0,1-.95.25Zm.43,3.27A.72.72,0,0,0,51,57.7l.84-2.85.46-1.53h.09c.16-.06.31-.49.31-.85,0-.05,0-.11,0-.15A.33.33,0,0,0,52.5,52a10.45,10.45,0,0,0-1.31-.09l-.28,0a2.65,2.65,0,0,0-2.79,2,2.11,2.11,0,0,0-.07.54,1.5,1.5,0,0,0,.48,1.11l0,0,0,0a4.47,4.47,0,0,1-1.61,1.47.76.76,0,0,0-.36.57.6.6,0,0,0,.07.27c.22.49.64.38.93.26a5.32,5.32,0,0,0,2-2.17l0,0a1.46,1.46,0,0,0,.6-.15l.16-.1-.29.79a5.67,5.67,0,0,0-.25.69c-.13.61.24.77.4.82Z"/>
  <path fill="#fff" fill-rule="evenodd" d="M44.92,53.79h0a.85.85,0,0,0,0-.26.51.51,0,0,0,0-.13v0a.56.56,0,0,1-.06-.21.16.16,0,0,1,0-.09.18.18,0,0,1,.17-.07.86.86,0,0,1,1,.91h0A1.42,1.42,0,0,1,44.71,55h-.08l.29-1.23Zm-1.8,4.28a.6.6,0,0,0,.77-.48c.13-.38.4-1.32.4-1.32h.05A3.87,3.87,0,0,0,46,55.75a2.83,2.83,0,0,0,1.25-1.49,1.89,1.89,0,0,0-.13-1.6,2.62,2.62,0,0,0-2.26-.8c-1.54,0-1.58.51-1.62.92h0a2,2,0,0,0,0,.22.37.37,0,0,0,.06.24s0,0,.13,0c.24,0,.22.26.22.26a1.07,1.07,0,0,1,0,.35c0,.06-.78,2.76-1,3.35a.55.55,0,0,0,0,.17.73.73,0,0,0,.51.66Z"/>
</svg>
